  0
SECTION
  2
HEADER
  9
$ACADVER
  1
AC1009
  9
$FILLMODE
 70
0
  9
$EXTMIN
 10
-23.6590
 20
8.3566
 30
0.0000
  9
$EXTMAX
 10
76.5175
 20
71.2470
 30
0.0000
  0
ENDSEC
  0
SECTION
  2
TABLES
  0
TABLE
  2
LTYPE
 70
1
  0
LTYPE
  2
CONTINUOUS
 70
64
  3
Solid line
 72
65
 73
0
 40
0
  0
ENDTAB
  0
TABLE
  2
LAYER
 70
255
  0
LAYER
  2
16
 70
64
 62
175
  6
CONTINUOUS
  0
LAYER
  2
17
 70
64
 62
82
  6
CONTINUOUS
  0
LAYER
  2
20
 70
64
 62
213
  6
CONTINUOUS
  0
ENDTAB
  0
ENDSEC
  0
SECTION
  2
BLOCKS
  0
BLOCK
  8
0
  2
RECT
 70
64
 10
0.0000
 20
0.0000
 30
0.0000
  3
RECT
  0
SOLID
  8
0
 10
-0.5000
 20
-0.5000
 30
0.0000
 11
0.5000
 21
-0.5000
 31
0.0000
 12
-0.5000
 22
0.5000
 32
0.0000
 13
0.5000
 23
0.5000
 33
0.0000
  0
ENDBLK
  8
0
  0
BLOCK
  8
0
  2
PIE
 70
64
 10
0.0000
 20
0.0000
 30
0.0000
  3
PIE
  0
CIRCLE
  8
0
 10
0.0000
 20
0.0000
 30
0.0000
 40
0.5000
  0
ENDBLK
  8
0
  0
BLOCK
  8
0
  2
OCTAGONP
 70
64
 10
0.0000
 20
0.0000
 30
0.0000
  3
OCTAGONP
  0
POLYLINE
  8
0
 66
1
 10
0.0000
 20
0.0000
 30
0.0000
 40
0.0000
 41
0.0000
 70
1
  0
VERTEX
  8
0
 10
-0.5000
 20
-0.2071
 30
0.0000
  0
VERTEX
  8
0
 10
-0.5000
 20
0.2071
 30
0.0000
  0
VERTEX
  8
0
 10
-0.2071
 20
0.5000
 30
0.0000
  0
VERTEX
  8
0
 10
0.2071
 20
0.5000
 30
0.0000
  0
VERTEX
  8
0
 10
0.5000
 20
0.2071
 30
0.0000
  0
VERTEX
  8
0
 10
0.5000
 20
-0.2071
 30
0.0000
  0
VERTEX
  8
0
 10
0.2071
 20
-0.5000
 30
0.0000
  0
VERTEX
  8
0
 10
-0.2071
 20
-0.5000
 30
0.0000
  0
SEQEND
  8
0
  0
ENDBLK
  8
0
  0
BLOCK
  8
0
  2
SQUAREP
 70
64
 10
0.0000
 20
0.0000
 30
0.0000
  3
SQUAREP
  0
SOLID
  8
0
 10
-0.5000
 20
-0.5000
 30
0.0000
 11
0.5000
 21
-0.5000
 31
0.0000
 12
-0.5000
 22
0.5000
 32
0.0000
 13
0.5000
 23
0.5000
 33
0.0000
  0
ENDBLK
  8
0
  0
BLOCK
  8
0
  2
ROUNDP
 70
64
 10
0.0000
 20
0.0000
 30
0.0000
  3
ROUNDP
  0
CIRCLE
  8
0
 10
0.0000
 20
0.0000
 30
0.0000
 40
0.5000
  0
ENDBLK
  8
0
  0
BLOCK
  8
0
  2
ANNULUSP
 70
64
 10
0.0000
 20
0.0000
 30
0.0000
  3
ANNULUSP
  0
CIRCLE
  8
0
 10
0.0000
 20
0.0000
 30
0.0000
 40
0.5000
  0
ENDBLK
  8
0
  0
BLOCK
  8
0
  2
THERMALP
 70
64
 10
0.0000
 20
0.0000
 30
0.0000
  3
THERMALP
  0
LINE
  8
0
 10
-0.2379
 20
0.4500
 30
0.0000
 11
0.2379
 21
0.4500
 31
0.0000
  0
LINE
  8
0
 10
0.4500
 20
0.2379
 30
0.0000
 11
0.4500
 21
-0.2379
 31
0.0000
  0
LINE
  8
0
 10
0.2379
 20
-0.4500
 30
0.0000
 11
-0.2379
 21
-0.4500
 31
0.0000
  0
LINE
  8
0
 10
-0.4500
 20
-0.2379
 30
0.0000
 11
-0.4500
 21
0.2379
 31
0.0000
  0
ENDBLK
  8
0
  0
BLOCK
  8
0
  2
OCTAGONV
 70
64
 10
0.0000
 20
0.0000
 30
0.0000
  3
OCTAGONV
  0
POLYLINE
  8
0
 66
1
 10
0.0000
 20
0.0000
 30
0.0000
 40
0.0000
 41
0.0000
 70
1
  0
VERTEX
  8
0
 10
-0.5000
 20
-0.2071
 30
0.0000
  0
VERTEX
  8
0
 10
-0.5000
 20
0.2071
 30
0.0000
  0
VERTEX
  8
0
 10
-0.2071
 20
0.5000
 30
0.0000
  0
VERTEX
  8
0
 10
0.2071
 20
0.5000
 30
0.0000
  0
VERTEX
  8
0
 10
0.5000
 20
0.2071
 30
0.0000
  0
VERTEX
  8
0
 10
0.5000
 20
-0.2071
 30
0.0000
  0
VERTEX
  8
0
 10
0.2071
 20
-0.5000
 30
0.0000
  0
VERTEX
  8
0
 10
-0.2071
 20
-0.5000
 30
0.0000
  0
SEQEND
  8
0
  0
ENDBLK
  8
0
  0
BLOCK
  8
0
  2
SQUAREV
 70
64
 10
0.0000
 20
0.0000
 30
0.0000
  3
SQUAREV
  0
SOLID
  8
0
 10
-0.5000
 20
-0.5000
 30
0.0000
 11
0.5000
 21
-0.5000
 31
0.0000
 12
-0.5000
 22
0.5000
 32
0.0000
 13
0.5000
 23
0.5000
 33
0.0000
  0
ENDBLK
  8
0
  0
BLOCK
  8
0
  2
ROUNDV
 70
64
 10
0.0000
 20
0.0000
 30
0.0000
  3
ROUNDV
  0
CIRCLE
  8
0
 10
0.0000
 20
0.0000
 30
0.0000
 40
0.5000
  0
ENDBLK
  8
0
  0
BLOCK
  8
0
  2
ANNULUSV
 70
64
 10
0.0000
 20
0.0000
 30
0.0000
  3
ANNULUSV
  0
CIRCLE
  8
0
 10
0.0000
 20
0.0000
 30
0.0000
 40
0.5000
  0
ENDBLK
  8
0
  0
BLOCK
  8
0
  2
THERMALV
 70
64
 10
0.0000
 20
0.0000
 30
0.0000
  3
THERMALV
  0
LINE
  8
0
 10
-0.2379
 20
0.4500
 30
0.0000
 11
0.2379
 21
0.4500
 31
0.0000
  0
LINE
  8
0
 10
0.4500
 20
0.2379
 30
0.0000
 11
0.4500
 21
-0.2379
 31
0.0000
  0
LINE
  8
0
 10
0.2379
 20
-0.4500
 30
0.0000
 11
-0.2379
 21
-0.4500
 31
0.0000
  0
LINE
  8
0
 10
-0.4500
 20
-0.2379
 30
0.0000
 11
-0.4500
 21
0.2379
 31
0.0000
  0
ENDBLK
  8
0
  0
ENDSEC
  0
SECTION
  2
ENTITIES
  0
LINE
  8
20
 10
70.2310
 20
70.4850
 30
0.0000
 11
0.3810
 21
70.4850
 31
0.0000
  0
LINE
  8
20
 10
0.3810
 20
70.4850
 30
0.0000
 11
0.3810
 21
8.6360
 31
0.0000
  0
LINE
  8
20
 10
0.3810
 20
8.6360
 30
0.0000
 11
70.2310
 21
8.6360
 31
0.0000
  0
LINE
  8
20
 10
70.2310
 20
8.6360
 30
0.0000
 11
70.2310
 21
70.4850
 31
0.0000
  0
LINE
  8
16
 10
51.6711
 20
58.2010
 30
0.0000
 11
51.9423
 21
58.4722
 31
0.0000
  0
LINE
  8
16
 10
51.9423
 20
58.4722
 30
0.0000
 11
52.4846
 21
58.4722
 31
0.0000
  0
LINE
  8
16
 10
52.4846
 20
58.4722
 30
0.0000
 11
52.7558
 21
58.2010
 31
0.0000
  0
LINE
  8
16
 10
52.7558
 20
58.2010
 30
0.0000
 11
52.7558
 21
57.1164
 31
0.0000
  0
LINE
  8
16
 10
52.7558
 20
57.1164
 30
0.0000
 11
52.4846
 21
56.8452
 31
0.0000
  0
LINE
  8
16
 10
52.4846
 20
56.8452
 30
0.0000
 11
51.9423
 21
56.8452
 31
0.0000
  0
LINE
  8
16
 10
51.9423
 20
56.8452
 30
0.0000
 11
51.6711
 21
57.1164
 31
0.0000
  0
LINE
  8
16
 10
51.1186
 20
56.8452
 30
0.0000
 11
51.1186
 21
57.9299
 31
0.0000
  0
LINE
  8
16
 10
51.1186
 20
57.9299
 30
0.0000
 11
50.5763
 21
58.4722
 31
0.0000
  0
LINE
  8
16
 10
50.5763
 20
58.4722
 30
0.0000
 11
50.0340
 21
57.9299
 31
0.0000
  0
LINE
  8
16
 10
50.0340
 20
57.9299
 30
0.0000
 11
50.0340
 21
56.8452
 31
0.0000
  0
LINE
  8
16
 10
51.1186
 20
57.6587
 30
0.0000
 11
50.0340
 21
57.6587
 31
0.0000
  0
LINE
  8
16
 10
49.4815
 20
56.8452
 30
0.0000
 11
49.4815
 21
58.4722
 31
0.0000
  0
LINE
  8
16
 10
49.4815
 20
58.4722
 30
0.0000
 11
48.3968
 21
56.8452
 31
0.0000
  0
LINE
  8
16
 10
48.3968
 20
56.8452
 30
0.0000
 11
48.3968
 21
58.4722
 31
0.0000
  0
LINE
  8
16
 10
46.7597
 20
58.2010
 30
0.0000
 11
47.0308
 21
58.4722
 31
0.0000
  0
LINE
  8
16
 10
47.0308
 20
58.4722
 30
0.0000
 11
47.5732
 21
58.4722
 31
0.0000
  0
LINE
  8
16
 10
47.5732
 20
58.4722
 30
0.0000
 11
47.8443
 21
58.2010
 31
0.0000
  0
LINE
  8
16
 10
47.8443
 20
58.2010
 30
0.0000
 11
47.8443
 21
57.9299
 31
0.0000
  0
LINE
  8
16
 10
47.8443
 20
57.9299
 30
0.0000
 11
47.5732
 21
57.6587
 31
0.0000
  0
LINE
  8
16
 10
47.5732
 20
57.6587
 30
0.0000
 11
47.0308
 21
57.6587
 31
0.0000
  0
LINE
  8
16
 10
47.0308
 20
57.6587
 30
0.0000
 11
46.7597
 21
57.3875
 31
0.0000
  0
LINE
  8
16
 10
46.7597
 20
57.3875
 30
0.0000
 11
46.7597
 21
57.1164
 31
0.0000
  0
LINE
  8
16
 10
46.7597
 20
57.1164
 30
0.0000
 11
47.0308
 21
56.8452
 31
0.0000
  0
LINE
  8
16
 10
47.0308
 20
56.8452
 30
0.0000
 11
47.5732
 21
56.8452
 31
0.0000
  0
LINE
  8
16
 10
47.5732
 20
56.8452
 30
0.0000
 11
47.8443
 21
57.1164
 31
0.0000
  0
LINE
  8
16
 10
46.2072
 20
56.8452
 30
0.0000
 11
46.2072
 21
58.4722
 31
0.0000
  0
LINE
  8
16
 10
46.2072
 20
57.6587
 30
0.0000
 11
45.1225
 21
57.6587
 31
0.0000
  0
LINE
  8
16
 10
45.1225
 20
58.4722
 30
0.0000
 11
45.1225
 21
56.8452
 31
0.0000
  0
LINE
  8
16
 10
44.5700
 20
56.8452
 30
0.0000
 11
44.5700
 21
58.4722
 31
0.0000
  0
LINE
  8
16
 10
44.5700
 20
58.4722
 30
0.0000
 11
43.7565
 21
58.4722
 31
0.0000
  0
LINE
  8
16
 10
43.7565
 20
58.4722
 30
0.0000
 11
43.4854
 21
58.2010
 31
0.0000
  0
LINE
  8
16
 10
43.4854
 20
58.2010
 30
0.0000
 11
43.4854
 21
57.6587
 31
0.0000
  0
LINE
  8
16
 10
43.4854
 20
57.6587
 30
0.0000
 11
43.7565
 21
57.3875
 31
0.0000
  0
LINE
  8
16
 10
43.7565
 20
57.3875
 30
0.0000
 11
44.5700
 21
57.3875
 31
0.0000
  0
LINE
  8
16
 10
44.0277
 20
57.3875
 30
0.0000
 11
43.4854
 21
56.8452
 31
0.0000
  0
LINE
  8
16
 10
42.9329
 20
56.8452
 30
0.0000
 11
42.9329
 21
57.9299
 31
0.0000
  0
LINE
  8
16
 10
42.9329
 20
57.9299
 30
0.0000
 11
42.3905
 21
58.4722
 31
0.0000
  0
LINE
  8
16
 10
42.3905
 20
58.4722
 30
0.0000
 11
41.8482
 21
57.9299
 31
0.0000
  0
LINE
  8
16
 10
41.8482
 20
57.9299
 30
0.0000
 11
41.8482
 21
56.8452
 31
0.0000
  0
LINE
  8
16
 10
42.9329
 20
57.6587
 30
0.0000
 11
41.8482
 21
57.6587
 31
0.0000
  0
LINE
  8
16
 10
40.2110
 20
58.2010
 30
0.0000
 11
40.4822
 21
58.4722
 31
0.0000
  0
LINE
  8
16
 10
40.4822
 20
58.4722
 30
0.0000
 11
41.0245
 21
58.4722
 31
0.0000
  0
LINE
  8
16
 10
41.0245
 20
58.4722
 30
0.0000
 11
41.2957
 21
58.2010
 31
0.0000
  0
LINE
  8
16
 10
41.2957
 20
58.2010
 30
0.0000
 11
41.2957
 21
57.9299
 31
0.0000
  0
LINE
  8
16
 10
41.2957
 20
57.9299
 30
0.0000
 11
41.0245
 21
57.6587
 31
0.0000
  0
LINE
  8
16
 10
41.0245
 20
57.6587
 30
0.0000
 11
40.4822
 21
57.6587
 31
0.0000
  0
LINE
  8
16
 10
40.4822
 20
57.6587
 30
0.0000
 11
40.2110
 21
57.3875
 31
0.0000
  0
LINE
  8
16
 10
40.2110
 20
57.3875
 30
0.0000
 11
40.2110
 21
57.1164
 31
0.0000
  0
LINE
  8
16
 10
40.2110
 20
57.1164
 30
0.0000
 11
40.4822
 21
56.8452
 31
0.0000
  0
LINE
  8
16
 10
40.4822
 20
56.8452
 30
0.0000
 11
41.0245
 21
56.8452
 31
0.0000
  0
LINE
  8
16
 10
41.0245
 20
56.8452
 30
0.0000
 11
41.2957
 21
57.1164
 31
0.0000
  0
LINE
  8
16
 10
39.6586
 20
56.8452
 30
0.0000
 11
39.6586
 21
58.4722
 31
0.0000
  0
LINE
  8
16
 10
39.6586
 20
58.4722
 30
0.0000
 11
38.8451
 21
58.4722
 31
0.0000
  0
LINE
  8
16
 10
38.8451
 20
58.4722
 30
0.0000
 11
38.5739
 21
58.2010
 31
0.0000
  0
LINE
  8
16
 10
38.5739
 20
58.2010
 30
0.0000
 11
38.5739
 21
57.6587
 31
0.0000
  0
LINE
  8
16
 10
38.5739
 20
57.6587
 30
0.0000
 11
38.8451
 21
57.3875
 31
0.0000
  0
LINE
  8
16
 10
38.8451
 20
57.3875
 30
0.0000
 11
39.6586
 21
57.3875
 31
0.0000
  0
LINE
  8
16
 10
38.0214
 20
57.6587
 30
0.0000
 11
36.9367
 21
57.6587
 31
0.0000
  0
LINE
  8
16
 10
36.3842
 20
56.8452
 30
0.0000
 11
36.3842
 21
58.4722
 31
0.0000
  0
LINE
  8
16
 10
36.3842
 20
58.4722
 30
0.0000
 11
35.5707
 21
58.4722
 31
0.0000
  0
LINE
  8
16
 10
35.5707
 20
58.4722
 30
0.0000
 11
35.2996
 21
58.2010
 31
0.0000
  0
LINE
  8
16
 10
35.2996
 20
58.2010
 30
0.0000
 11
35.2996
 21
57.6587
 31
0.0000
  0
LINE
  8
16
 10
35.2996
 20
57.6587
 30
0.0000
 11
35.5707
 21
57.3875
 31
0.0000
  0
LINE
  8
16
 10
35.5707
 20
57.3875
 30
0.0000
 11
36.3842
 21
57.3875
 31
0.0000
  0
LINE
  8
16
 10
34.7471
 20
56.8452
 30
0.0000
 11
34.2048
 21
56.8452
 31
0.0000
  0
LINE
  8
16
 10
34.4759
 20
56.8452
 30
0.0000
 11
34.4759
 21
58.4722
 31
0.0000
  0
LINE
  8
16
 10
34.7471
 20
58.4722
 30
0.0000
 11
34.2048
 21
58.4722
 31
0.0000
  0
LINE
  8
16
 10
32.0185
 20
56.8452
 30
0.0000
 11
32.0185
 21
57.9299
 31
0.0000
  0
LINE
  8
16
 10
32.0185
 20
57.9299
 30
0.0000
 11
31.4762
 21
58.4722
 31
0.0000
  0
LINE
  8
16
 10
31.4762
 20
58.4722
 30
0.0000
 11
30.9338
 21
57.9299
 31
0.0000
  0
LINE
  8
16
 10
30.9338
 20
57.9299
 30
0.0000
 11
30.9338
 21
56.8452
 31
0.0000
  0
LINE
  8
16
 10
32.0185
 20
57.6587
 30
0.0000
 11
30.9338
 21
57.6587
 31
0.0000
  0
LINE
  8
16
 10
29.2967
 20
58.4722
 30
0.0000
 11
29.2967
 21
56.8452
 31
0.0000
  0
LINE
  8
16
 10
29.2967
 20
56.8452
 30
0.0000
 11
30.1102
 21
56.8452
 31
0.0000
  0
LINE
  8
16
 10
30.1102
 20
56.8452
 30
0.0000
 11
30.3813
 21
57.1164
 31
0.0000
  0
LINE
  8
16
 10
30.3813
 20
57.1164
 30
0.0000
 11
30.3813
 21
57.6587
 31
0.0000
  0
LINE
  8
16
 10
30.3813
 20
57.6587
 30
0.0000
 11
30.1102
 21
57.9299
 31
0.0000
  0
LINE
  8
16
 10
30.1102
 20
57.9299
 30
0.0000
 11
29.2967
 21
57.9299
 31
0.0000
  0
LINE
  8
16
 10
28.4730
 20
57.9299
 30
0.0000
 11
27.9307
 21
57.9299
 31
0.0000
  0
LINE
  8
16
 10
27.9307
 20
57.9299
 30
0.0000
 11
27.6595
 21
57.6587
 31
0.0000
  0
LINE
  8
16
 10
27.6595
 20
57.6587
 30
0.0000
 11
27.6595
 21
56.8452
 31
0.0000
  0
LINE
  8
16
 10
27.6595
 20
56.8452
 30
0.0000
 11
28.4730
 21
56.8452
 31
0.0000
  0
LINE
  8
16
 10
28.4730
 20
56.8452
 30
0.0000
 11
28.7442
 21
57.1164
 31
0.0000
  0
LINE
  8
16
 10
28.7442
 20
57.1164
 30
0.0000
 11
28.4730
 21
57.3875
 31
0.0000
  0
LINE
  8
16
 10
28.4730
 20
57.3875
 30
0.0000
 11
27.6595
 21
57.3875
 31
0.0000
  0
LINE
  8
16
 10
27.1070
 20
56.3029
 30
0.0000
 11
27.1070
 21
57.9299
 31
0.0000
  0
LINE
  8
16
 10
27.1070
 20
57.9299
 30
0.0000
 11
26.2935
 21
57.9299
 31
0.0000
  0
LINE
  8
16
 10
26.2935
 20
57.9299
 30
0.0000
 11
26.0224
 21
57.6587
 31
0.0000
  0
LINE
  8
16
 10
26.0224
 20
57.6587
 30
0.0000
 11
26.0224
 21
57.1164
 31
0.0000
  0
LINE
  8
16
 10
26.0224
 20
57.1164
 30
0.0000
 11
26.2935
 21
56.8452
 31
0.0000
  0
LINE
  8
16
 10
26.2935
 20
56.8452
 30
0.0000
 11
27.1070
 21
56.8452
 31
0.0000
  0
LINE
  8
16
 10
25.1987
 20
58.2010
 30
0.0000
 11
25.1987
 21
57.1164
 31
0.0000
  0
LINE
  8
16
 10
25.1987
 20
57.1164
 30
0.0000
 11
24.9275
 21
56.8452
 31
0.0000
  0
LINE
  8
16
 10
25.4699
 20
57.9299
 30
0.0000
 11
24.9275
 21
57.9299
 31
0.0000
  0
LINE
  8
16
 10
23.5649
 20
56.8452
 30
0.0000
 11
24.1073
 21
56.8452
 31
0.0000
  0
LINE
  8
16
 10
24.1073
 20
56.8452
 30
0.0000
 11
24.3784
 21
57.1164
 31
0.0000
  0
LINE
  8
16
 10
24.3784
 20
57.1164
 30
0.0000
 11
24.3784
 21
57.6587
 31
0.0000
  0
LINE
  8
16
 10
24.3784
 20
57.6587
 30
0.0000
 11
24.1073
 21
57.9299
 31
0.0000
  0
LINE
  8
16
 10
24.1073
 20
57.9299
 30
0.0000
 11
23.5649
 21
57.9299
 31
0.0000
  0
LINE
  8
16
 10
23.5649
 20
57.9299
 30
0.0000
 11
23.2938
 21
57.6587
 31
0.0000
  0
LINE
  8
16
 10
23.2938
 20
57.6587
 30
0.0000
 11
23.2938
 21
57.3875
 31
0.0000
  0
LINE
  8
16
 10
23.2938
 20
57.3875
 30
0.0000
 11
24.3784
 21
57.3875
 31
0.0000
  0
LINE
  8
16
 10
22.7413
 20
56.8452
 30
0.0000
 11
22.7413
 21
57.9299
 31
0.0000
  0
LINE
  8
16
 10
22.7413
 20
57.3875
 30
0.0000
 11
22.1989
 21
57.9299
 31
0.0000
  0
LINE
  8
16
 10
22.1989
 20
57.9299
 30
0.0000
 11
21.9278
 21
57.9299
 31
0.0000
  0
LINE
  8
16
 10
51.3588
 20
55.4242
 30
0.0000
 11
51.3588
 21
54.3395
 31
0.0000
  0
LINE
  8
16
 10
51.3588
 20
54.3395
 30
0.0000
 11
50.8165
 21
53.7972
 31
0.0000
  0
LINE
  8
16
 10
50.8165
 20
53.7972
 30
0.0000
 11
50.2741
 21
54.3395
 31
0.0000
  0
LINE
  8
16
 10
50.2741
 20
54.3395
 30
0.0000
 11
50.2741
 21
55.4242
 31
0.0000
  0
LINE
  8
16
 10
49.7216
 20
53.7972
 30
0.0000
 11
49.1793
 21
53.7972
 31
0.0000
  0
LINE
  8
16
 10
49.4505
 20
53.7972
 30
0.0000
 11
49.4505
 21
55.4242
 31
0.0000
  0
LINE
  8
16
 10
49.7216
 20
55.4242
 30
0.0000
 11
49.1793
 21
55.4242
 31
0.0000
  0
LINE
  8
16
 10
48.6302
 20
53.7972
 30
0.0000
 11
48.6302
 21
54.8819
 31
0.0000
  0
LINE
  8
16
 10
48.6302
 20
54.8819
 30
0.0000
 11
48.0879
 21
55.4242
 31
0.0000
  0
LINE
  8
16
 10
48.0879
 20
55.4242
 30
0.0000
 11
47.5455
 21
54.8819
 31
0.0000
  0
LINE
  8
16
 10
47.5455
 20
54.8819
 30
0.0000
 11
47.5455
 21
53.7972
 31
0.0000
  0
LINE
  8
16
 10
48.6302
 20
54.6107
 30
0.0000
 11
47.5455
 21
54.6107
 31
0.0000
  0
LINE
  8
16
 10
45.9084
 20
55.1530
 30
0.0000
 11
46.1796
 21
55.4242
 31
0.0000
  0
LINE
  8
16
 10
46.1796
 20
55.4242
 30
0.0000
 11
46.7219
 21
55.4242
 31
0.0000
  0
LINE
  8
16
 10
46.7219
 20
55.4242
 30
0.0000
 11
46.9931
 21
55.1530
 31
0.0000
  0
LINE
  8
16
 10
46.9931
 20
55.1530
 30
0.0000
 11
46.9931
 21
54.8819
 31
0.0000
  0
LINE
  8
16
 10
46.9931
 20
54.8819
 30
0.0000
 11
46.7219
 21
54.6107
 31
0.0000
  0
LINE
  8
16
 10
46.7219
 20
54.6107
 30
0.0000
 11
46.1796
 21
54.6107
 31
0.0000
  0
LINE
  8
16
 10
46.1796
 20
54.6107
 30
0.0000
 11
45.9084
 21
54.3395
 31
0.0000
  0
LINE
  8
16
 10
45.9084
 20
54.3395
 30
0.0000
 11
45.9084
 21
54.0684
 31
0.0000
  0
LINE
  8
16
 10
45.9084
 20
54.0684
 30
0.0000
 11
46.1796
 21
53.7972
 31
0.0000
  0
LINE
  8
16
 10
46.1796
 20
53.7972
 30
0.0000
 11
46.7219
 21
53.7972
 31
0.0000
  0
LINE
  8
16
 10
46.7219
 20
53.7972
 30
0.0000
 11
46.9931
 21
54.0684
 31
0.0000
  0
LINE
  8
16
 10
43.7187
 20
55.4242
 30
0.0000
 11
43.7187
 21
54.3395
 31
0.0000
  0
LINE
  8
16
 10
43.7187
 20
54.3395
 30
0.0000
 11
43.1764
 21
53.7972
 31
0.0000
  0
LINE
  8
16
 10
43.1764
 20
53.7972
 30
0.0000
 11
42.6341
 21
54.3395
 31
0.0000
  0
LINE
  8
16
 10
42.6341
 20
54.3395
 30
0.0000
 11
42.6341
 21
55.4242
 31
0.0000
  0
LINE
  8
16
 10
42.0816
 20
55.4242
 30
0.0000
 11
42.0816
 21
53.7972
 31
0.0000
  0
LINE
  8
16
 10
42.0816
 20
53.7972
 30
0.0000
 11
40.9969
 21
53.7972
 31
0.0000
  0
LINE
  8
16
 10
39.3598
 20
55.1530
 30
0.0000
 11
39.6309
 21
55.4242
 31
0.0000
  0
LINE
  8
16
 10
39.6309
 20
55.4242
 30
0.0000
 11
40.1733
 21
55.4242
 31
0.0000
  0
LINE
  8
16
 10
40.1733
 20
55.4242
 30
0.0000
 11
40.4444
 21
55.1530
 31
0.0000
  0
LINE
  8
16
 10
40.4444
 20
55.1530
 30
0.0000
 11
40.4444
 21
54.8819
 31
0.0000
  0
LINE
  8
16
 10
40.4444
 20
54.8819
 30
0.0000
 11
40.1733
 21
54.6107
 31
0.0000
  0
LINE
  8
16
 10
40.1733
 20
54.6107
 30
0.0000
 11
39.6309
 21
54.6107
 31
0.0000
  0
LINE
  8
16
 10
39.6309
 20
54.6107
 30
0.0000
 11
39.3598
 21
54.3395
 31
0.0000
  0
LINE
  8
16
 10
39.3598
 20
54.3395
 30
0.0000
 11
39.3598
 21
54.0684
 31
0.0000
  0
LINE
  8
16
 10
39.3598
 20
54.0684
 30
0.0000
 11
39.6309
 21
53.7972
 31
0.0000
  0
LINE
  8
16
 10
39.6309
 20
53.7972
 30
0.0000
 11
40.1733
 21
53.7972
 31
0.0000
  0
LINE
  8
16
 10
40.1733
 20
53.7972
 30
0.0000
 11
40.4444
 21
54.0684
 31
0.0000
  0
INSERT
  8
17
  2
OCTAGONP
 10
11.5570
 20
29.0830
 30
0.0000
 41
1.3208
 42
1.3208
 43
1.0000
 50
90.0000
  0
INSERT
  8
17
  2
OCTAGONP
 10
11.5570
 20
39.2430
 30
0.0000
 41
1.3208
 42
1.3208
 43
1.0000
 50
90.0000
  0
INSERT
  8
17
  2
OCTAGONP
 10
14.9860
 20
39.2430
 30
0.0000
 41
1.3208
 42
1.3208
 43
1.0000
 50
270.0000
  0
INSERT
  8
17
  2
OCTAGONP
 10
14.9860
 20
29.0830
 30
0.0000
 41
1.3208
 42
1.3208
 43
1.0000
 50
270.0000
  0
CIRCLE
  8
20
 10
54.8640
 20
19.4310
 30
0.0000
 40
1.6002
  0
CIRCLE
  8
20
 10
4.0640
 20
34.6710
 30
0.0000
 40
1.6002
  0
CIRCLE
  8
20
 10
4.0640
 20
62.6110
 30
0.0000
 40
1.6002
  0
INSERT
  8
17
  2
SQUAREP
 10
6.6040
 20
19.4310
 30
0.0000
 41
1.6510
 42
1.6510
 43
1.0000
 50
180.0000
  0
INSERT
  8
17
  2
ROUNDP
 10
9.1440
 20
19.4310
 30
0.0000
 41
1.6510
 42
1.6510
 43
1.0000
 50
180.0000
  0
INSERT
  8
17
  2
ROUNDP
 10
11.6840
 20
19.4310
 30
0.0000
 41
1.6510
 42
1.6510
 43
1.0000
 50
180.0000
  0
INSERT
  8
17
  2
ROUNDP
 10
14.2240
 20
19.4310
 30
0.0000
 41
1.6510
 42
1.6510
 43
1.0000
 50
180.0000
  0
INSERT
  8
17
  2
ROUNDP
 10
16.7640
 20
19.4310
 30
0.0000
 41
1.6510
 42
1.6510
 43
1.0000
 50
180.0000
  0
INSERT
  8
17
  2
ROUNDP
 10
19.3040
 20
19.4310
 30
0.0000
 41
1.6510
 42
1.6510
 43
1.0000
 50
180.0000
  0
INSERT
  8
17
  2
ROUNDP
 10
21.8440
 20
19.4310
 30
0.0000
 41
1.6510
 42
1.6510
 43
1.0000
 50
180.0000
  0
INSERT
  8
17
  2
ROUNDP
 10
24.3840
 20
19.4310
 30
0.0000
 41
1.6510
 42
1.6510
 43
1.0000
 50
180.0000
  0
INSERT
  8
17
  2
SQUAREP
 10
28.4480
 20
19.4310
 30
0.0000
 41
1.6510
 42
1.6510
 43
1.0000
 50
180.0000
  0
INSERT
  8
17
  2
ROUNDP
 10
30.9880
 20
19.4310
 30
0.0000
 41
1.6510
 42
1.6510
 43
1.0000
 50
180.0000
  0
INSERT
  8
17
  2
ROUNDP
 10
33.5280
 20
19.4310
 30
0.0000
 41
1.6510
 42
1.6510
 43
1.0000
 50
180.0000
  0
INSERT
  8
17
  2
ROUNDP
 10
36.0680
 20
19.4310
 30
0.0000
 41
1.6510
 42
1.6510
 43
1.0000
 50
180.0000
  0
INSERT
  8
17
  2
ROUNDP
 10
38.6080
 20
19.4310
 30
0.0000
 41
1.6510
 42
1.6510
 43
1.0000
 50
180.0000
  0
INSERT
  8
17
  2
ROUNDP
 10
41.1480
 20
19.4310
 30
0.0000
 41
1.6510
 42
1.6510
 43
1.0000
 50
180.0000
  0
INSERT
  8
17
  2
ROUNDP
 10
43.6880
 20
19.4310
 30
0.0000
 41
1.6510
 42
1.6510
 43
1.0000
 50
180.0000
  0
INSERT
  8
17
  2
ROUNDP
 10
46.2280
 20
19.4310
 30
0.0000
 41
1.6510
 42
1.6510
 43
1.0000
 50
180.0000
  0
INSERT
  8
17
  2
ROUNDP
 10
48.7680
 20
19.4310
 30
0.0000
 41
1.6510
 42
1.6510
 43
1.0000
 50
180.0000
  0
INSERT
  8
17
  2
ROUNDP
 10
51.3080
 20
19.4310
 30
0.0000
 41
1.6510
 42
1.6510
 43
1.0000
 50
180.0000
  0
INSERT
  8
17
  2
ROUNDP
 10
42.1640
 20
67.6910
 30
0.0000
 41
1.6510
 42
1.6510
 43
1.0000
 50
180.0000
  0
INSERT
  8
17
  2
ROUNDP
 10
39.6240
 20
67.6910
 30
0.0000
 41
1.6510
 42
1.6510
 43
1.0000
 50
180.0000
  0
INSERT
  8
17
  2
ROUNDP
 10
37.0840
 20
67.6910
 30
0.0000
 41
1.6510
 42
1.6510
 43
1.0000
 50
180.0000
  0
INSERT
  8
17
  2
ROUNDP
 10
34.5440
 20
67.6910
 30
0.0000
 41
1.6510
 42
1.6510
 43
1.0000
 50
180.0000
  0
INSERT
  8
17
  2
ROUNDP
 10
32.0040
 20
67.6910
 30
0.0000
 41
1.6510
 42
1.6510
 43
1.0000
 50
180.0000
  0
INSERT
  8
17
  2
ROUNDP
 10
29.4640
 20
67.6910
 30
0.0000
 41
1.6510
 42
1.6510
 43
1.0000
 50
180.0000
  0
INSERT
  8
17
  2
ROUNDP
 10
26.9240
 20
67.6910
 30
0.0000
 41
1.6510
 42
1.6510
 43
1.0000
 50
180.0000
  0
INSERT
  8
17
  2
SQUAREP
 10
24.3840
 20
67.6910
 30
0.0000
 41
1.6510
 42
1.6510
 43
1.0000
 50
180.0000
  0
INSERT
  8
17
  2
SQUAREP
 10
19.3040
 20
67.6910
 30
0.0000
 41
1.6510
 42
1.6510
 43
1.0000
 50
180.0000
  0
INSERT
  8
17
  2
ROUNDP
 10
16.7640
 20
67.6910
 30
0.0000
 41
1.6510
 42
1.6510
 43
1.0000
 50
180.0000
  0
INSERT
  8
17
  2
ROUNDP
 10
14.2240
 20
67.6910
 30
0.0000
 41
1.6510
 42
1.6510
 43
1.0000
 50
180.0000
  0
INSERT
  8
17
  2
ROUNDP
 10
11.6840
 20
67.6910
 30
0.0000
 41
1.6510
 42
1.6510
 43
1.0000
 50
180.0000
  0
INSERT
  8
17
  2
ROUNDP
 10
9.1440
 20
67.6910
 30
0.0000
 41
1.6510
 42
1.6510
 43
1.0000
 50
180.0000
  0
INSERT
  8
17
  2
ROUNDP
 10
6.6040
 20
67.6910
 30
0.0000
 41
1.6510
 42
1.6510
 43
1.0000
 50
180.0000
  0
INSERT
  8
17
  2
SQUAREP
 10
6.6040
 20
39.7510
 30
0.0000
 41
1.6510
 42
1.6510
 43
1.0000
 50
180.0000
  0
INSERT
  8
17
  2
ROUNDP
 10
6.6040
 20
42.2910
 30
0.0000
 41
1.6510
 42
1.6510
 43
1.0000
 50
180.0000
  0
INSERT
  8
17
  2
ROUNDP
 10
6.6040
 20
44.8310
 30
0.0000
 41
1.6510
 42
1.6510
 43
1.0000
 50
180.0000
  0
INSERT
  8
17
  2
ROUNDP
 10
4.0640
 20
44.8310
 30
0.0000
 41
1.6510
 42
1.6510
 43
1.0000
 50
180.0000
  0
INSERT
  8
17
  2
ROUNDP
 10
4.0640
 20
42.2910
 30
0.0000
 41
1.6510
 42
1.6510
 43
1.0000
 50
180.0000
  0
INSERT
  8
17
  2
ROUNDP
 10
4.0640
 20
39.7510
 30
0.0000
 41
1.6510
 42
1.6510
 43
1.0000
 50
180.0000
  0
INSERT
  8
17
  2
SQUAREP
 10
53.0980
 20
13.6670
 30
0.0000
 41
1.7780
 42
1.7780
 43
1.0000
 50
180.0000
  0
INSERT
  8
17
  2
ROUNDP
 10
53.0980
 20
11.1270
 30
0.0000
 41
1.7780
 42
1.7780
 43
1.0000
 50
180.0000
  0
INSERT
  8
17
  2
ROUNDP
 10
50.5580
 20
13.6670
 30
0.0000
 41
1.7780
 42
1.7780
 43
1.0000
 50
180.0000
  0
INSERT
  8
17
  2
ROUNDP
 10
50.5580
 20
11.1270
 30
0.0000
 41
1.7780
 42
1.7780
 43
1.0000
 50
180.0000
  0
INSERT
  8
17
  2
ROUNDP
 10
48.0180
 20
13.6670
 30
0.0000
 41
1.7780
 42
1.7780
 43
1.0000
 50
180.0000
  0
INSERT
  8
17
  2
ROUNDP
 10
48.0180
 20
11.1270
 30
0.0000
 41
1.7780
 42
1.7780
 43
1.0000
 50
180.0000
  0
INSERT
  8
17
  2
ROUNDP
 10
45.4780
 20
13.6670
 30
0.0000
 41
1.7780
 42
1.7780
 43
1.0000
 50
180.0000
  0
INSERT
  8
17
  2
ROUNDP
 10
45.4780
 20
11.1270
 30
0.0000
 41
1.7780
 42
1.7780
 43
1.0000
 50
180.0000
  0
INSERT
  8
17
  2
ROUNDP
 10
42.9380
 20
13.6670
 30
0.0000
 41
1.7780
 42
1.7780
 43
1.0000
 50
180.0000
  0
INSERT
  8
17
  2
ROUNDP
 10
42.9380
 20
11.1270
 30
0.0000
 41
1.7780
 42
1.7780
 43
1.0000
 50
180.0000
  0
INSERT
  8
17
  2
ROUNDP
 10
40.3980
 20
13.6670
 30
0.0000
 41
1.7780
 42
1.7780
 43
1.0000
 50
180.0000
  0
INSERT
  8
17
  2
ROUNDP
 10
40.3980
 20
11.1270
 30
0.0000
 41
1.7780
 42
1.7780
 43
1.0000
 50
180.0000
  0
INSERT
  8
17
  2
ROUNDP
 10
37.8580
 20
13.6670
 30
0.0000
 41
1.7780
 42
1.7780
 43
1.0000
 50
180.0000
  0
INSERT
  8
17
  2
ROUNDP
 10
37.8580
 20
11.1270
 30
0.0000
 41
1.7780
 42
1.7780
 43
1.0000
 50
180.0000
  0
INSERT
  8
17
  2
ROUNDP
 10
35.3180
 20
13.6670
 30
0.0000
 41
1.7780
 42
1.7780
 43
1.0000
 50
180.0000
  0
INSERT
  8
17
  2
ROUNDP
 10
35.3180
 20
11.1270
 30
0.0000
 41
1.7780
 42
1.7780
 43
1.0000
 50
180.0000
  0
INSERT
  8
17
  2
ROUNDP
 10
32.7780
 20
13.6670
 30
0.0000
 41
1.7780
 42
1.7780
 43
1.0000
 50
180.0000
  0
INSERT
  8
17
  2
ROUNDP
 10
32.7780
 20
11.1270
 30
0.0000
 41
1.7780
 42
1.7780
 43
1.0000
 50
180.0000
  0
INSERT
  8
17
  2
ROUNDP
 10
30.2380
 20
13.6670
 30
0.0000
 41
1.7780
 42
1.7780
 43
1.0000
 50
180.0000
  0
INSERT
  8
17
  2
ROUNDP
 10
30.2380
 20
11.1270
 30
0.0000
 41
1.7780
 42
1.7780
 43
1.0000
 50
180.0000
  0
INSERT
  8
17
  2
ROUNDP
 10
27.6980
 20
13.6670
 30
0.0000
 41
1.7780
 42
1.7780
 43
1.0000
 50
180.0000
  0
INSERT
  8
17
  2
ROUNDP
 10
27.6980
 20
11.1270
 30
0.0000
 41
1.7780
 42
1.7780
 43
1.0000
 50
180.0000
  0
INSERT
  8
17
  2
ROUNDP
 10
25.1580
 20
13.6670
 30
0.0000
 41
1.7780
 42
1.7780
 43
1.0000
 50
180.0000
  0
INSERT
  8
17
  2
ROUNDP
 10
25.1580
 20
11.1270
 30
0.0000
 41
1.7780
 42
1.7780
 43
1.0000
 50
180.0000
  0
INSERT
  8
17
  2
ROUNDP
 10
22.6180
 20
13.6670
 30
0.0000
 41
1.7780
 42
1.7780
 43
1.0000
 50
180.0000
  0
INSERT
  8
17
  2
ROUNDP
 10
22.6180
 20
11.1270
 30
0.0000
 41
1.7780
 42
1.7780
 43
1.0000
 50
180.0000
  0
INSERT
  8
17
  2
ROUNDP
 10
20.0780
 20
13.6670
 30
0.0000
 41
1.7780
 42
1.7780
 43
1.0000
 50
180.0000
  0
INSERT
  8
17
  2
ROUNDP
 10
20.0780
 20
11.1270
 30
0.0000
 41
1.7780
 42
1.7780
 43
1.0000
 50
180.0000
  0
INSERT
  8
17
  2
ROUNDP
 10
17.5380
 20
13.6670
 30
0.0000
 41
1.7780
 42
1.7780
 43
1.0000
 50
180.0000
  0
INSERT
  8
17
  2
ROUNDP
 10
17.5380
 20
11.1270
 30
0.0000
 41
1.7780
 42
1.7780
 43
1.0000
 50
180.0000
  0
INSERT
  8
17
  2
ROUNDP
 10
14.9980
 20
13.6670
 30
0.0000
 41
1.7780
 42
1.7780
 43
1.0000
 50
180.0000
  0
INSERT
  8
17
  2
ROUNDP
 10
14.9980
 20
11.1270
 30
0.0000
 41
1.7780
 42
1.7780
 43
1.0000
 50
180.0000
  0
INSERT
  8
17
  2
ROUNDP
 10
12.4580
 20
13.6670
 30
0.0000
 41
1.7780
 42
1.7780
 43
1.0000
 50
180.0000
  0
INSERT
  8
17
  2
ROUNDP
 10
12.4580
 20
11.1270
 30
0.0000
 41
1.7780
 42
1.7780
 43
1.0000
 50
180.0000
  0
INSERT
  8
17
  2
ROUNDP
 10
9.9180
 20
13.6670
 30
0.0000
 41
1.7780
 42
1.7780
 43
1.0000
 50
180.0000
  0
INSERT
  8
17
  2
ROUNDP
 10
9.9180
 20
11.1270
 30
0.0000
 41
1.7780
 42
1.7780
 43
1.0000
 50
180.0000
  0
INSERT
  8
17
  2
ROUNDP
 10
7.3780
 20
13.6670
 30
0.0000
 41
1.7780
 42
1.7780
 43
1.0000
 50
180.0000
  0
INSERT
  8
17
  2
ROUNDP
 10
7.3780
 20
11.1270
 30
0.0000
 41
1.7780
 42
1.7780
 43
1.0000
 50
180.0000
  0
INSERT
  8
17
  2
ROUNDP
 10
4.8380
 20
13.6670
 30
0.0000
 41
1.7780
 42
1.7780
 43
1.0000
 50
180.0000
  0
INSERT
  8
17
  2
ROUNDP
 10
4.8380
 20
11.1270
 30
0.0000
 41
1.7780
 42
1.7780
 43
1.0000
 50
180.0000
  0
LINE
  8
16
 10
34.5440
 20
67.6910
 30
0.0000
 11
34.5440
 21
65.4050
 31
0.0000
  0
LINE
  8
16
 10
34.5440
 20
65.4050
 30
0.0000
 11
35.8140
 21
64.1350
 31
0.0000
  0
LINE
  8
16
 10
35.8140
 20
64.1350
 30
0.0000
 11
52.8320
 21
64.1350
 31
0.0000
  0
LINE
  8
16
 10
52.8320
 20
64.1350
 30
0.0000
 11
60.3250
 21
56.6420
 31
0.0000
  0
LINE
  8
16
 10
60.3250
 20
56.6420
 30
0.0000
 11
60.3250
 21
18.5420
 31
0.0000
  0
LINE
  8
16
 10
60.3250
 20
18.5420
 30
0.0000
 11
55.6260
 21
13.8430
 31
0.0000
  0
LINE
  8
16
 10
55.6260
 20
13.8430
 30
0.0000
 11
53.2740
 21
13.8430
 31
0.0000
  0
LINE
  8
16
 10
53.2740
 20
13.8430
 30
0.0000
 11
53.0980
 21
13.6670
 31
0.0000
  0
LINE
  8
16
 10
32.0040
 20
67.6910
 30
0.0000
 11
32.0040
 21
68.5800
 31
0.0000
  0
LINE
  8
16
 10
32.0040
 20
68.5800
 30
0.0000
 11
32.8930
 21
69.4690
 31
0.0000
  0
LINE
  8
16
 10
32.8930
 20
69.4690
 30
0.0000
 11
45.7200
 21
69.4690
 31
0.0000
  0
LINE
  8
16
 10
45.7200
 20
69.4690
 30
0.0000
 11
48.2600
 21
66.9290
 31
0.0000
  0
LINE
  8
16
 10
48.2600
 20
66.9290
 30
0.0000
 11
54.1020
 21
66.9290
 31
0.0000
  0
LINE
  8
16
 10
54.1020
 20
66.9290
 30
0.0000
 11
62.8650
 21
58.1660
 31
0.0000
  0
LINE
  8
16
 10
62.8650
 20
58.1660
 30
0.0000
 11
62.8650
 21
17.3990
 31
0.0000
  0
LINE
  8
16
 10
62.8650
 20
17.3990
 30
0.0000
 11
56.5150
 21
11.0490
 31
0.0000
  0
LINE
  8
16
 10
56.5150
 20
11.0490
 30
0.0000
 11
53.1760
 21
11.0490
 31
0.0000
  0
LINE
  8
16
 10
53.1760
 20
11.0490
 30
0.0000
 11
53.0980
 21
11.1270
 31
0.0000
  0
LINE
  8
16
 10
33.5280
 20
19.4310
 30
0.0000
 11
33.5280
 21
17.6530
 31
0.0000
  0
LINE
  8
16
 10
33.5280
 20
17.6530
 30
0.0000
 11
31.4960
 21
15.6210
 31
0.0000
  0
LINE
  8
16
 10
25.1580
 20
11.1270
 30
0.0000
 11
25.1580
 21
10.5290
 31
0.0000
  0
LINE
  8
16
 10
25.1580
 20
10.5290
 30
0.0000
 11
26.1620
 21
9.5250
 31
0.0000
  0
LINE
  8
16
 10
26.1620
 20
9.5250
 30
0.0000
 11
31.1150
 21
9.5250
 31
0.0000
  0
LINE
  8
16
 10
31.1150
 20
9.5250
 30
0.0000
 11
31.4960
 21
9.9060
 31
0.0000
  0
LINE
  8
16
 10
31.4960
 20
15.6210
 30
0.0000
 11
31.4960
 21
9.9060
 31
0.0000
  0
LINE
  8
16
 10
13.8938
 20
39.2430
 30
0.0000
 11
13.8938
 21
39.2430
 31
0.0000
  0
LINE
  8
16
 10
13.8938
 20
39.2430
 30
0.0000
 11
14.9860
 21
39.2430
 31
0.0000
  0
LINE
  8
16
 10
14.9860
 20
39.2430
 30
0.0000
 11
14.9860
 21
39.2430
 31
0.0000
  0
LINE
  8
16
 10
14.9860
 20
39.2430
 30
0.0000
 11
13.8938
 21
39.2430
 31
0.0000
  0
LINE
  8
16
 10
28.4099
 20
67.6910
 30
0.0000
 11
26.9240
 21
67.6910
 31
0.0000
  0
LINE
  8
16
 10
26.9240
 20
67.6910
 30
0.0000
 11
26.9240
 21
67.6910
 31
0.0000
  0
LINE
  8
16
 10
26.9240
 20
67.6910
 30
0.0000
 11
29.4640
 21
67.6910
 31
0.0000
  0
LINE
  8
16
 10
29.4640
 20
67.6910
 30
0.0000
 11
29.4640
 21
67.6910
 31
0.0000
  0
LINE
  8
16
 10
29.4640
 20
67.6910
 30
0.0000
 11
28.4099
 21
67.6910
 31
0.0000
  0
LINE
  8
16
 10
35.5703
 20
16.9291
 30
0.0000
 11
36.5657
 21
16.9291
 31
0.0000
  0
LINE
  8
16
 10
36.5657
 20
16.9291
 30
0.0000
 11
37.3380
 21
17.2490
 31
0.0000
  0
LINE
  8
16
 10
37.3380
 20
17.2490
 30
0.0000
 11
38.1103
 21
16.9291
 31
0.0000
  0
LINE
  8
16
 10
38.1103
 20
16.9291
 30
0.0000
 11
39.1057
 21
16.9291
 31
0.0000
  0
LINE
  8
16
 10
39.1057
 20
16.9291
 30
0.0000
 11
39.8780
 21
17.2490
 31
0.0000
  0
LINE
  8
16
 10
39.8780
 20
17.2490
 30
0.0000
 11
40.6503
 21
16.9291
 31
0.0000
  0
LINE
  8
16
 10
40.6503
 20
16.9291
 30
0.0000
 11
41.6457
 21
16.9291
 31
0.0000
  0
LINE
  8
16
 10
41.6457
 20
16.9291
 30
0.0000
 11
42.5652
 21
17.3100
 31
0.0000
  0
LINE
  8
16
 10
42.5652
 20
17.3100
 30
0.0000
 11
43.2622
 21
18.0070
 31
0.0000
  0
LINE
  8
16
 10
43.2622
 20
18.0070
 30
0.0000
 11
43.3401
 21
17.9817
 31
0.0000
  0
LINE
  8
16
 10
43.3401
 20
17.9817
 30
0.0000
 11
43.5711
 21
17.9451
 31
0.0000
  0
LINE
  8
16
 10
43.5711
 20
17.9451
 30
0.0000
 11
43.6880
 21
17.9451
 31
0.0000
  0
LINE
  8
16
 10
43.6880
 20
17.9451
 30
0.0000
 11
43.6880
 21
19.4310
 31
0.0000
  0
LINE
  8
16
 10
43.6880
 20
19.4310
 30
0.0000
 11
43.6880
 21
19.4310
 31
0.0000
  0
LINE
  8
16
 10
43.6880
 20
19.4310
 30
0.0000
 11
43.6880
 21
17.9451
 31
0.0000
  0
LINE
  8
16
 10
43.6880
 20
17.9451
 30
0.0000
 11
43.8049
 21
17.9451
 31
0.0000
  0
LINE
  8
16
 10
43.8049
 20
17.9451
 30
0.0000
 11
44.0359
 21
17.9817
 31
0.0000
  0
LINE
  8
16
 10
44.0359
 20
17.9817
 30
0.0000
 11
44.1138
 21
18.0070
 31
0.0000
  0
LINE
  8
16
 10
44.1138
 20
18.0070
 30
0.0000
 11
44.8108
 21
17.3100
 31
0.0000
  0
LINE
  8
16
 10
44.8108
 20
17.3100
 30
0.0000
 11
45.7303
 21
16.9291
 31
0.0000
  0
LINE
  8
16
 10
45.7303
 20
16.9291
 30
0.0000
 11
46.7257
 21
16.9291
 31
0.0000
  0
LINE
  8
16
 10
46.7257
 20
16.9291
 30
0.0000
 11
47.4980
 21
17.2490
 31
0.0000
  0
LINE
  8
16
 10
47.4980
 20
17.2490
 30
0.0000
 11
48.2703
 21
16.9291
 31
0.0000
  0
LINE
  8
16
 10
48.2703
 20
16.9291
 30
0.0000
 11
49.2657
 21
16.9291
 31
0.0000
  0
LINE
  8
16
 10
49.2657
 20
16.9291
 30
0.0000
 11
50.0380
 21
17.2490
 31
0.0000
  0
LINE
  8
16
 10
50.0380
 20
17.2490
 30
0.0000
 11
50.8103
 21
16.9291
 31
0.0000
  0
LINE
  8
16
 10
50.8103
 20
16.9291
 30
0.0000
 11
51.8057
 21
16.9291
 31
0.0000
  0
LINE
  8
16
 10
51.8057
 20
16.9291
 30
0.0000
 11
52.4607
 21
17.2004
 31
0.0000
  0
LINE
  8
16
 10
52.4607
 20
17.2004
 30
0.0000
 11
52.8521
 21
16.8091
 31
0.0000
  0
LINE
  8
16
 10
52.8521
 20
16.8091
 30
0.0000
 11
53.5993
 21
16.3777
 31
0.0000
  0
LINE
  8
16
 10
53.5993
 20
16.3777
 30
0.0000
 11
54.1415
 21
16.2324
 31
0.0000
  0
LINE
  8
16
 10
54.1415
 20
16.2324
 30
0.0000
 11
51.8755
 21
16.2324
 31
0.0000
  0
LINE
  8
16
 10
51.8755
 20
16.2324
 30
0.0000
 11
51.4907
 21
16.0730
 31
0.0000
  0
LINE
  8
16
 10
51.4907
 20
16.0730
 30
0.0000
 11
50.8957
 21
16.2324
 31
0.0000
  0
LINE
  8
16
 10
50.8957
 20
16.2324
 30
0.0000
 11
50.2203
 21
16.2324
 31
0.0000
  0
LINE
  8
16
 10
50.2203
 20
16.2324
 30
0.0000
 11
49.5678
 21
16.0576
 31
0.0000
  0
LINE
  8
16
 10
49.5678
 20
16.0576
 30
0.0000
 11
49.2880
 21
15.8960
 31
0.0000
  0
LINE
  8
16
 10
49.2880
 20
15.8960
 30
0.0000
 11
49.0082
 21
16.0576
 31
0.0000
  0
LINE
  8
16
 10
49.0082
 20
16.0576
 30
0.0000
 11
48.3557
 21
16.2324
 31
0.0000
  0
LINE
  8
16
 10
48.3557
 20
16.2324
 30
0.0000
 11
47.6803
 21
16.2324
 31
0.0000
  0
LINE
  8
16
 10
47.6803
 20
16.2324
 30
0.0000
 11
47.0278
 21
16.0576
 31
0.0000
  0
LINE
  8
16
 10
47.0278
 20
16.0576
 30
0.0000
 11
46.7480
 21
15.8960
 31
0.0000
  0
LINE
  8
16
 10
46.7480
 20
15.8960
 30
0.0000
 11
46.4682
 21
16.0576
 31
0.0000
  0
LINE
  8
16
 10
46.4682
 20
16.0576
 30
0.0000
 11
45.8157
 21
16.2324
 31
0.0000
  0
LINE
  8
16
 10
45.8157
 20
16.2324
 30
0.0000
 11
45.1403
 21
16.2324
 31
0.0000
  0
LINE
  8
16
 10
45.1403
 20
16.2324
 30
0.0000
 11
44.4878
 21
16.0576
 31
0.0000
  0
LINE
  8
16
 10
44.4878
 20
16.0576
 30
0.0000
 11
44.2080
 21
15.8960
 31
0.0000
  0
LINE
  8
16
 10
44.2080
 20
15.8960
 30
0.0000
 11
43.9282
 21
16.0576
 31
0.0000
  0
LINE
  8
16
 10
43.9282
 20
16.0576
 30
0.0000
 11
43.2757
 21
16.2324
 31
0.0000
  0
LINE
  8
16
 10
43.2757
 20
16.2324
 30
0.0000
 11
42.6003
 21
16.2324
 31
0.0000
  0
LINE
  8
16
 10
42.6003
 20
16.2324
 30
0.0000
 11
41.9478
 21
16.0576
 31
0.0000
  0
LINE
  8
16
 10
41.9478
 20
16.0576
 30
0.0000
 11
41.6680
 21
15.8960
 31
0.0000
  0
LINE
  8
16
 10
41.6680
 20
15.8960
 30
0.0000
 11
41.3882
 21
16.0576
 31
0.0000
  0
LINE
  8
16
 10
41.3882
 20
16.0576
 30
0.0000
 11
40.7357
 21
16.2324
 31
0.0000
  0
LINE
  8
16
 10
40.7357
 20
16.2324
 30
0.0000
 11
40.0603
 21
16.2324
 31
0.0000
  0
LINE
  8
16
 10
40.0603
 20
16.2324
 30
0.0000
 11
39.4078
 21
16.0576
 31
0.0000
  0
LINE
  8
16
 10
39.4078
 20
16.0576
 30
0.0000
 11
39.1280
 21
15.8960
 31
0.0000
  0
LINE
  8
16
 10
39.1280
 20
15.8960
 30
0.0000
 11
38.8482
 21
16.0576
 31
0.0000
  0
LINE
  8
16
 10
38.8482
 20
16.0576
 30
0.0000
 11
38.1957
 21
16.2324
 31
0.0000
  0
LINE
  8
16
 10
38.1957
 20
16.2324
 30
0.0000
 11
37.5203
 21
16.2324
 31
0.0000
  0
LINE
  8
16
 10
37.5203
 20
16.2324
 30
0.0000
 11
36.8678
 21
16.0576
 31
0.0000
  0
LINE
  8
16
 10
36.8678
 20
16.0576
 30
0.0000
 11
36.5880
 21
15.8960
 31
0.0000
  0
LINE
  8
16
 10
36.5880
 20
15.8960
 30
0.0000
 11
36.3082
 21
16.0576
 31
0.0000
  0
LINE
  8
16
 10
36.3082
 20
16.0576
 30
0.0000
 11
35.6557
 21
16.2324
 31
0.0000
  0
LINE
  8
16
 10
35.6557
 20
16.2324
 30
0.0000
 11
34.9803
 21
16.2324
 31
0.0000
  0
LINE
  8
16
 10
34.9803
 20
16.2324
 30
0.0000
 11
34.6870
 21
16.1538
 31
0.0000
  0
LINE
  8
16
 10
34.6870
 20
16.1538
 30
0.0000
 11
35.1214
 21
16.5883
 31
0.0000
  0
LINE
  8
16
 10
35.1214
 20
16.5883
 30
0.0000
 11
35.3077
 21
17.0379
 31
0.0000
  0
LINE
  8
16
 10
35.3077
 20
17.0379
 30
0.0000
 11
35.5703
 21
16.9291
 31
0.0000
  0
LINE
  8
16
 10
31.5976
 20
30.6141
 30
0.0000
 11
31.5976
 21
31.4889
 31
0.0000
  0
LINE
  8
16
 10
31.5976
 20
31.4889
 30
0.0000
 11
31.3114
 21
32.1797
 31
0.0000
  0
LINE
  8
16
 10
31.3114
 20
32.1797
 30
0.0000
 11
30.7827
 21
32.7084
 31
0.0000
  0
LINE
  8
16
 10
30.7827
 20
32.7084
 30
0.0000
 11
30.5659
 21
32.7982
 31
0.0000
  0
LINE
  8
16
 10
30.5659
 20
32.7982
 30
0.0000
 11
29.2794
 21
34.0847
 31
0.0000
  0
LINE
  8
16
 10
29.2794
 20
34.0847
 30
0.0000
 11
29.2794
 21
34.0847
 31
0.0000
  0
LINE
  8
16
 10
29.2794
 20
34.0847
 30
0.0000
 11
28.7507
 21
34.6134
 31
0.0000
  0
LINE
  8
16
 10
28.7507
 20
34.6134
 30
0.0000
 11
28.0599
 21
34.8996
 31
0.0000
  0
LINE
  8
16
 10
28.0599
 20
34.8996
 30
0.0000
 11
9.6686
 21
34.8996
 31
0.0000
  0
LINE
  8
16
 10
9.6686
 20
34.8996
 30
0.0000
 11
9.4996
 21
35.0686
 31
0.0000
  0
LINE
  8
16
 10
9.4996
 20
35.0686
 30
0.0000
 11
9.4996
 21
35.5529
 31
0.0000
  0
LINE
  8
16
 10
9.4996
 20
35.5529
 30
0.0000
 11
9.2134
 21
36.2437
 31
0.0000
  0
LINE
  8
16
 10
9.2134
 20
36.2437
 30
0.0000
 11
8.6847
 21
36.7724
 31
0.0000
  0
LINE
  8
16
 10
8.6847
 20
36.7724
 30
0.0000
 11
8.0777
 21
37.3795
 31
0.0000
  0
LINE
  8
16
 10
8.0777
 20
37.3795
 30
0.0000
 11
8.3791
 21
37.5043
 31
0.0000
  0
LINE
  8
16
 10
8.3791
 20
37.5043
 30
0.0000
 11
8.7462
 21
37.8714
 31
0.0000
  0
LINE
  8
16
 10
8.7462
 20
37.8714
 30
0.0000
 11
9.6239
 21
37.8714
 31
0.0000
  0
LINE
  8
16
 10
9.6239
 20
37.8714
 30
0.0000
 11
10.5891
 21
36.9062
 31
0.0000
  0
LINE
  8
16
 10
10.5891
 20
36.9062
 30
0.0000
 11
12.5249
 21
36.9062
 31
0.0000
  0
LINE
  8
16
 10
12.5249
 20
36.9062
 30
0.0000
 11
13.8938
 21
38.2751
 31
0.0000
  0
LINE
  8
16
 10
13.8938
 20
38.2751
 30
0.0000
 11
13.8938
 21
38.4673
 31
0.0000
  0
LINE
  8
16
 10
13.8938
 20
38.4673
 30
0.0000
 11
14.4389
 21
37.9222
 31
0.0000
  0
LINE
  8
16
 10
14.4389
 20
37.9222
 30
0.0000
 11
14.9860
 21
37.9222
 31
0.0000
  0
LINE
  8
16
 10
14.9860
 20
37.9222
 30
0.0000
 11
14.9860
 21
39.2430
 31
0.0000
  0
LINE
  8
16
 10
14.9860
 20
39.2430
 30
0.0000
 11
14.9860
 21
39.2430
 31
0.0000
  0
LINE
  8
16
 10
14.9860
 20
39.2430
 30
0.0000
 11
14.9860
 21
37.9222
 31
0.0000
  0
LINE
  8
16
 10
14.9860
 20
37.9222
 30
0.0000
 11
15.5331
 21
37.9222
 31
0.0000
  0
LINE
  8
16
 10
15.5331
 20
37.9222
 30
0.0000
 11
16.3068
 21
38.6959
 31
0.0000
  0
LINE
  8
16
 10
16.3068
 20
38.6959
 30
0.0000
 11
16.3068
 21
39.2430
 31
0.0000
  0
LINE
  8
16
 10
16.3068
 20
39.2430
 30
0.0000
 11
14.9860
 21
39.2430
 31
0.0000
  0
LINE
  8
16
 10
14.9860
 20
39.2430
 30
0.0000
 11
14.9860
 21
39.2430
 31
0.0000
  0
LINE
  8
16
 10
14.9860
 20
39.2430
 30
0.0000
 11
16.3068
 21
39.2430
 31
0.0000
  0
LINE
  8
16
 10
16.3068
 20
39.2430
 30
0.0000
 11
16.3068
 21
39.7901
 31
0.0000
  0
LINE
  8
16
 10
16.3068
 20
39.7901
 30
0.0000
 11
15.5331
 21
40.5638
 31
0.0000
  0
LINE
  8
16
 10
15.5331
 20
40.5638
 30
0.0000
 11
14.9860
 21
40.5638
 31
0.0000
  0
LINE
  8
16
 10
14.9860
 20
40.5638
 30
0.0000
 11
14.9860
 21
39.2430
 31
0.0000
  0
LINE
  8
16
 10
14.9860
 20
39.2430
 30
0.0000
 11
14.9860
 21
39.2430
 31
0.0000
  0
LINE
  8
16
 10
14.9860
 20
39.2430
 30
0.0000
 11
14.9860
 21
40.5638
 31
0.0000
  0
LINE
  8
16
 10
14.9860
 20
40.5638
 30
0.0000
 11
14.4389
 21
40.5638
 31
0.0000
  0
LINE
  8
16
 10
14.4389
 20
40.5638
 30
0.0000
 11
13.8938
 21
40.0187
 31
0.0000
  0
LINE
  8
16
 10
13.8938
 20
40.0187
 30
0.0000
 11
13.8938
 21
40.2109
 31
0.0000
  0
LINE
  8
16
 10
13.8938
 20
40.2109
 30
0.0000
 11
12.5249
 21
41.5798
 31
0.0000
  0
LINE
  8
16
 10
12.5249
 20
41.5798
 30
0.0000
 11
11.5455
 21
41.5798
 31
0.0000
  0
LINE
  8
16
 10
11.5455
 20
41.5798
 30
0.0000
 11
11.4229
 21
41.6306
 31
0.0000
  0
LINE
  8
16
 10
11.4229
 20
41.6306
 30
0.0000
 11
9.0385
 21
41.6306
 31
0.0000
  0
LINE
  8
16
 10
9.0385
 20
41.6306
 30
0.0000
 11
9.1059
 21
41.7933
 31
0.0000
  0
LINE
  8
16
 10
9.1059
 20
41.7933
 30
0.0000
 11
9.1059
 21
42.7887
 31
0.0000
  0
LINE
  8
16
 10
9.1059
 20
42.7887
 30
0.0000
 11
8.7860
 21
43.5610
 31
0.0000
  0
LINE
  8
16
 10
8.7860
 20
43.5610
 30
0.0000
 11
9.1059
 21
44.3333
 31
0.0000
  0
LINE
  8
16
 10
9.1059
 20
44.3333
 30
0.0000
 11
9.1059
 21
45.3287
 31
0.0000
  0
LINE
  8
16
 10
9.1059
 20
45.3287
 30
0.0000
 11
8.7250
 21
46.2482
 31
0.0000
  0
LINE
  8
16
 10
8.7250
 20
46.2482
 30
0.0000
 11
8.0212
 21
46.9520
 31
0.0000
  0
LINE
  8
16
 10
8.0212
 20
46.9520
 30
0.0000
 11
7.1017
 21
47.3329
 31
0.0000
  0
LINE
  8
16
 10
7.1017
 20
47.3329
 30
0.0000
 11
6.1063
 21
47.3329
 31
0.0000
  0
LINE
  8
16
 10
6.1063
 20
47.3329
 30
0.0000
 11
5.1868
 21
46.9520
 31
0.0000
  0
LINE
  8
16
 10
5.1868
 20
46.9520
 30
0.0000
 11
4.4898
 21
46.2550
 31
0.0000
  0
LINE
  8
16
 10
4.4898
 20
46.2550
 30
0.0000
 11
4.4119
 21
46.2803
 31
0.0000
  0
LINE
  8
16
 10
4.4119
 20
46.2803
 30
0.0000
 11
4.1809
 21
46.3169
 31
0.0000
  0
LINE
  8
16
 10
4.1809
 20
46.3169
 30
0.0000
 11
4.0640
 21
46.3169
 31
0.0000
  0
LINE
  8
16
 10
4.0640
 20
46.3169
 30
0.0000
 11
4.0640
 21
45.3898
 31
0.0000
  0
LINE
  8
16
 10
4.0640
 20
45.3898
 30
0.0000
 11
4.0640
 21
45.3898
 31
0.0000
  0
LINE
  8
16
 10
4.0640
 20
45.3898
 30
0.0000
 11
4.0640
 21
46.3169
 31
0.0000
  0
LINE
  8
16
 10
4.0640
 20
46.3169
 30
0.0000
 11
3.9471
 21
46.3169
 31
0.0000
  0
LINE
  8
16
 10
3.9471
 20
46.3169
 30
0.0000
 11
3.7161
 21
46.2803
 31
0.0000
  0
LINE
  8
16
 10
3.7161
 20
46.2803
 30
0.0000
 11
3.4936
 21
46.2080
 31
0.0000
  0
LINE
  8
16
 10
3.4936
 20
46.2080
 30
0.0000
 11
3.2852
 21
46.1019
 31
0.0000
  0
LINE
  8
16
 10
3.2852
 20
46.1019
 30
0.0000
 11
3.0960
 21
45.9644
 31
0.0000
  0
LINE
  8
16
 10
3.0960
 20
45.9644
 30
0.0000
 11
2.9306
 21
45.7990
 31
0.0000
  0
LINE
  8
16
 10
2.9306
 20
45.7990
 30
0.0000
 11
2.7931
 21
45.6098
 31
0.0000
  0
LINE
  8
16
 10
2.7931
 20
45.6098
 30
0.0000
 11
2.7069
 21
45.4406
 31
0.0000
  0
LINE
  8
16
 10
2.7069
 20
45.4406
 30
0.0000
 11
2.2931
 21
45.4406
 31
0.0000
  0
LINE
  8
16
 10
2.2931
 20
45.4406
 30
0.0000
 11
2.2098
 21
45.4061
 31
0.0000
  0
LINE
  8
16
 10
2.2098
 20
45.4061
 30
0.0000
 11
2.2098
 21
59.8980
 31
0.0000
  0
LINE
  8
16
 10
2.2098
 20
59.8980
 30
0.0000
 11
2.7993
 21
59.5577
 31
0.0000
  0
LINE
  8
16
 10
2.7993
 20
59.5577
 30
0.0000
 11
3.6326
 21
59.3344
 31
0.0000
  0
LINE
  8
16
 10
3.6326
 20
59.3344
 30
0.0000
 11
4.4954
 21
59.3344
 31
0.0000
  0
LINE
  8
16
 10
4.4954
 20
59.3344
 30
0.0000
 11
5.3287
 21
59.5577
 31
0.0000
  0
LINE
  8
16
 10
5.3287
 20
59.5577
 30
0.0000
 11
6.0759
 21
59.9891
 31
0.0000
  0
LINE
  8
16
 10
6.0759
 20
59.9891
 30
0.0000
 11
6.6859
 21
60.5991
 31
0.0000
  0
LINE
  8
16
 10
6.6859
 20
60.5991
 30
0.0000
 11
7.1173
 21
61.3463
 31
0.0000
  0
LINE
  8
16
 10
7.1173
 20
61.3463
 30
0.0000
 11
7.3406
 21
62.1796
 31
0.0000
  0
LINE
  8
16
 10
7.3406
 20
62.1796
 30
0.0000
 11
7.3406
 21
63.0424
 31
0.0000
  0
LINE
  8
16
 10
7.3406
 20
63.0424
 30
0.0000
 11
7.1173
 21
63.8757
 31
0.0000
  0
LINE
  8
16
 10
7.1173
 20
63.8757
 30
0.0000
 11
6.6859
 21
64.6229
 31
0.0000
  0
LINE
  8
16
 10
6.6859
 20
64.6229
 30
0.0000
 11
6.1197
 21
65.1891
 31
0.0000
  0
LINE
  8
16
 10
6.1197
 20
65.1891
 30
0.0000
 11
7.1017
 21
65.1891
 31
0.0000
  0
LINE
  8
16
 10
7.1017
 20
65.1891
 30
0.0000
 11
7.8740
 21
65.5090
 31
0.0000
  0
LINE
  8
16
 10
7.8740
 20
65.5090
 30
0.0000
 11
8.6463
 21
65.1891
 31
0.0000
  0
LINE
  8
16
 10
8.6463
 20
65.1891
 30
0.0000
 11
9.6417
 21
65.1891
 31
0.0000
  0
LINE
  8
16
 10
9.6417
 20
65.1891
 30
0.0000
 11
10.4140
 21
65.5090
 31
0.0000
  0
LINE
  8
16
 10
10.4140
 20
65.5090
 30
0.0000
 11
11.1863
 21
65.1891
 31
0.0000
  0
LINE
  8
16
 10
11.1863
 20
65.1891
 30
0.0000
 11
12.1817
 21
65.1891
 31
0.0000
  0
LINE
  8
16
 10
12.1817
 20
65.1891
 30
0.0000
 11
12.9540
 21
65.5090
 31
0.0000
  0
LINE
  8
16
 10
12.9540
 20
65.5090
 30
0.0000
 11
13.7263
 21
65.1891
 31
0.0000
  0
LINE
  8
16
 10
13.7263
 20
65.1891
 30
0.0000
 11
14.7217
 21
65.1891
 31
0.0000
  0
LINE
  8
16
 10
14.7217
 20
65.1891
 30
0.0000
 11
15.4940
 21
65.5090
 31
0.0000
  0
LINE
  8
16
 10
15.4940
 20
65.5090
 30
0.0000
 11
16.2663
 21
65.1891
 31
0.0000
  0
LINE
  8
16
 10
16.2663
 20
65.1891
 30
0.0000
 11
17.2617
 21
65.1891
 31
0.0000
  0
LINE
  8
16
 10
17.2617
 20
65.1891
 30
0.0000
 11
17.7034
 21
65.3721
 31
0.0000
  0
LINE
  8
16
 10
17.7034
 20
65.3721
 30
0.0000
 11
18.1450
 21
65.1891
 31
0.0000
  0
LINE
  8
16
 10
18.1450
 20
65.1891
 30
0.0000
 11
20.4630
 21
65.1891
 31
0.0000
  0
LINE
  8
16
 10
20.4630
 20
65.1891
 30
0.0000
 11
21.0791
 21
65.4443
 31
0.0000
  0
LINE
  8
16
 10
21.0791
 20
65.4443
 30
0.0000
 11
21.5507
 21
65.9159
 31
0.0000
  0
LINE
  8
16
 10
21.5507
 20
65.9159
 30
0.0000
 11
21.8059
 21
66.5320
 31
0.0000
  0
LINE
  8
16
 10
21.8059
 20
66.5320
 30
0.0000
 11
21.8059
 21
68.6562
 31
0.0000
  0
LINE
  8
16
 10
21.8059
 20
68.6562
 30
0.0000
 11
21.8821
 21
68.6562
 31
0.0000
  0
LINE
  8
16
 10
21.8821
 20
68.6562
 30
0.0000
 11
21.8821
 21
66.5320
 31
0.0000
  0
LINE
  8
16
 10
21.8821
 20
66.5320
 30
0.0000
 11
22.1373
 21
65.9159
 31
0.0000
  0
LINE
  8
16
 10
22.1373
 20
65.9159
 30
0.0000
 11
22.6089
 21
65.4443
 31
0.0000
  0
LINE
  8
16
 10
22.6089
 20
65.4443
 30
0.0000
 11
23.2250
 21
65.1891
 31
0.0000
  0
LINE
  8
16
 10
23.2250
 20
65.1891
 30
0.0000
 11
25.5430
 21
65.1891
 31
0.0000
  0
LINE
  8
16
 10
25.5430
 20
65.1891
 30
0.0000
 11
26.1591
 21
65.4443
 31
0.0000
  0
LINE
  8
16
 10
26.1591
 20
65.4443
 30
0.0000
 11
26.6307
 21
65.9159
 31
0.0000
  0
LINE
  8
16
 10
26.6307
 20
65.9159
 30
0.0000
 11
26.7540
 21
66.2135
 31
0.0000
  0
LINE
  8
16
 10
26.7540
 20
66.2135
 30
0.0000
 11
26.8071
 21
66.2051
 31
0.0000
  0
LINE
  8
16
 10
26.8071
 20
66.2051
 30
0.0000
 11
26.9240
 21
66.2051
 31
0.0000
  0
LINE
  8
16
 10
26.9240
 20
66.2051
 30
0.0000
 11
26.9240
 21
67.6910
 31
0.0000
  0
LINE
  8
16
 10
26.9240
 20
67.6910
 30
0.0000
 11
26.9240
 21
67.6910
 31
0.0000
  0
LINE
  8
16
 10
26.9240
 20
67.6910
 30
0.0000
 11
26.9240
 21
66.2051
 31
0.0000
  0
LINE
  8
16
 10
26.9240
 20
66.2051
 30
0.0000
 11
27.0409
 21
66.2051
 31
0.0000
  0
LINE
  8
16
 10
27.0409
 20
66.2051
 30
0.0000
 11
27.2719
 21
66.2417
 31
0.0000
  0
LINE
  8
16
 10
27.2719
 20
66.2417
 30
0.0000
 11
27.4944
 21
66.3140
 31
0.0000
  0
LINE
  8
16
 10
27.4944
 20
66.3140
 30
0.0000
 11
27.7028
 21
66.4201
 31
0.0000
  0
LINE
  8
16
 10
27.7028
 20
66.4201
 30
0.0000
 11
27.8920
 21
66.5576
 31
0.0000
  0
LINE
  8
16
 10
27.8920
 20
66.5576
 30
0.0000
 11
28.0574
 21
66.7230
 31
0.0000
  0
LINE
  8
16
 10
28.0574
 20
66.7230
 30
0.0000
 11
28.1940
 21
66.9110
 31
0.0000
  0
LINE
  8
16
 10
28.1940
 20
66.9110
 30
0.0000
 11
28.3306
 21
66.7230
 31
0.0000
  0
LINE
  8
16
 10
28.3306
 20
66.7230
 30
0.0000
 11
28.4960
 21
66.5576
 31
0.0000
  0
LINE
  8
16
 10
28.4960
 20
66.5576
 30
0.0000
 11
28.6852
 21
66.4201
 31
0.0000
  0
LINE
  8
16
 10
28.6852
 20
66.4201
 30
0.0000
 11
28.8936
 21
66.3140
 31
0.0000
  0
LINE
  8
16
 10
28.8936
 20
66.3140
 30
0.0000
 11
29.1161
 21
66.2417
 31
0.0000
  0
LINE
  8
16
 10
29.1161
 20
66.2417
 30
0.0000
 11
29.3471
 21
66.2051
 31
0.0000
  0
LINE
  8
16
 10
29.3471
 20
66.2051
 30
0.0000
 11
29.4640
 21
66.2051
 31
0.0000
  0
LINE
  8
16
 10
29.4640
 20
66.2051
 30
0.0000
 11
29.4640
 21
67.6910
 31
0.0000
  0
LINE
  8
16
 10
29.4640
 20
67.6910
 30
0.0000
 11
29.4640
 21
67.6910
 31
0.0000
  0
LINE
  8
16
 10
29.4640
 20
67.6910
 30
0.0000
 11
29.4640
 21
66.2051
 31
0.0000
  0
LINE
  8
16
 10
29.4640
 20
66.2051
 30
0.0000
 11
29.5809
 21
66.2051
 31
0.0000
  0
LINE
  8
16
 10
29.5809
 20
66.2051
 30
0.0000
 11
29.8119
 21
66.2417
 31
0.0000
  0
LINE
  8
16
 10
29.8119
 20
66.2417
 30
0.0000
 11
29.8898
 21
66.2670
 31
0.0000
  0
LINE
  8
16
 10
29.8898
 20
66.2670
 30
0.0000
 11
30.5868
 21
65.5700
 31
0.0000
  0
LINE
  8
16
 10
30.5868
 20
65.5700
 30
0.0000
 11
31.5063
 21
65.1891
 31
0.0000
  0
LINE
  8
16
 10
31.5063
 20
65.1891
 30
0.0000
 11
32.4612
 21
65.1891
 31
0.0000
  0
LINE
  8
16
 10
32.4612
 20
65.1891
 30
0.0000
 11
32.4612
 21
64.9907
 31
0.0000
  0
LINE
  8
16
 10
32.4612
 20
64.9907
 30
0.0000
 11
32.7783
 21
64.2252
 31
0.0000
  0
LINE
  8
16
 10
32.7783
 20
64.2252
 30
0.0000
 11
34.0483
 21
62.9552
 31
0.0000
  0
LINE
  8
16
 10
34.0483
 20
62.9552
 30
0.0000
 11
34.6342
 21
62.3693
 31
0.0000
  0
LINE
  8
16
 10
34.6342
 20
62.3693
 30
0.0000
 11
35.3997
 21
62.0522
 31
0.0000
  0
LINE
  8
16
 10
35.3997
 20
62.0522
 30
0.0000
 11
51.9693
 21
62.0522
 31
0.0000
  0
LINE
  8
16
 10
51.9693
 20
62.0522
 30
0.0000
 11
58.2422
 21
55.7793
 31
0.0000
  0
LINE
  8
16
 10
58.2422
 20
55.7793
 30
0.0000
 11
58.2422
 21
19.4047
 31
0.0000
  0
LINE
  8
16
 10
58.2422
 20
19.4047
 30
0.0000
 11
58.1406
 21
19.3031
 31
0.0000
  0
LINE
  8
16
 10
58.1406
 20
19.3031
 30
0.0000
 11
58.1406
 21
19.8624
 31
0.0000
  0
LINE
  8
16
 10
58.1406
 20
19.8624
 30
0.0000
 11
57.9173
 21
20.6957
 31
0.0000
  0
LINE
  8
16
 10
57.9173
 20
20.6957
 30
0.0000
 11
57.4859
 21
21.4429
 31
0.0000
  0
LINE
  8
16
 10
57.4859
 20
21.4429
 30
0.0000
 11
56.8759
 21
22.0529
 31
0.0000
  0
LINE
  8
16
 10
56.8759
 20
22.0529
 30
0.0000
 11
56.1287
 21
22.4843
 31
0.0000
  0
LINE
  8
16
 10
56.1287
 20
22.4843
 30
0.0000
 11
55.2954
 21
22.7076
 31
0.0000
  0
LINE
  8
16
 10
55.2954
 20
22.7076
 30
0.0000
 11
54.4326
 21
22.7076
 31
0.0000
  0
LINE
  8
16
 10
54.4326
 20
22.7076
 30
0.0000
 11
53.5993
 21
22.4843
 31
0.0000
  0
LINE
  8
16
 10
53.5993
 20
22.4843
 30
0.0000
 11
52.8521
 21
22.0529
 31
0.0000
  0
LINE
  8
16
 10
52.8521
 20
22.0529
 30
0.0000
 11
52.4607
 21
21.6616
 31
0.0000
  0
LINE
  8
16
 10
52.4607
 20
21.6616
 30
0.0000
 11
51.8057
 21
21.9329
 31
0.0000
  0
LINE
  8
16
 10
51.8057
 20
21.9329
 30
0.0000
 11
50.8103
 21
21.9329
 31
0.0000
  0
LINE
  8
16
 10
50.8103
 20
21.9329
 30
0.0000
 11
50.0380
 21
21.6130
 31
0.0000
  0
LINE
  8
16
 10
50.0380
 20
21.6130
 30
0.0000
 11
49.2657
 21
21.9329
 31
0.0000
  0
LINE
  8
16
 10
49.2657
 20
21.9329
 30
0.0000
 11
48.2703
 21
21.9329
 31
0.0000
  0
LINE
  8
16
 10
48.2703
 20
21.9329
 30
0.0000
 11
47.4980
 21
21.6130
 31
0.0000
  0
LINE
  8
16
 10
47.4980
 20
21.6130
 30
0.0000
 11
46.7257
 21
21.9329
 31
0.0000
  0
LINE
  8
16
 10
46.7257
 20
21.9329
 30
0.0000
 11
45.7303
 21
21.9329
 31
0.0000
  0
LINE
  8
16
 10
45.7303
 20
21.9329
 30
0.0000
 11
44.8108
 21
21.5520
 31
0.0000
  0
LINE
  8
16
 10
44.8108
 20
21.5520
 30
0.0000
 11
44.1138
 21
20.8550
 31
0.0000
  0
LINE
  8
16
 10
44.1138
 20
20.8550
 30
0.0000
 11
44.0359
 21
20.8803
 31
0.0000
  0
LINE
  8
16
 10
44.0359
 20
20.8803
 30
0.0000
 11
43.8049
 21
20.9169
 31
0.0000
  0
LINE
  8
16
 10
43.8049
 20
20.9169
 30
0.0000
 11
43.6880
 21
20.9169
 31
0.0000
  0
LINE
  8
16
 10
43.6880
 20
20.9169
 30
0.0000
 11
43.6880
 21
19.4310
 31
0.0000
  0
LINE
  8
16
 10
43.6880
 20
19.4310
 30
0.0000
 11
43.6880
 21
19.4310
 31
0.0000
  0
LINE
  8
16
 10
43.6880
 20
19.4310
 30
0.0000
 11
43.6880
 21
20.9169
 31
0.0000
  0
LINE
  8
16
 10
43.6880
 20
20.9169
 30
0.0000
 11
43.5711
 21
20.9169
 31
0.0000
  0
LINE
  8
16
 10
43.5711
 20
20.9169
 30
0.0000
 11
43.3401
 21
20.8803
 31
0.0000
  0
LINE
  8
16
 10
43.3401
 20
20.8803
 30
0.0000
 11
43.2622
 21
20.8550
 31
0.0000
  0
LINE
  8
16
 10
43.2622
 20
20.8550
 30
0.0000
 11
42.5652
 21
21.5520
 31
0.0000
  0
LINE
  8
16
 10
42.5652
 20
21.5520
 30
0.0000
 11
41.6457
 21
21.9329
 31
0.0000
  0
LINE
  8
16
 10
41.6457
 20
21.9329
 30
0.0000
 11
40.6503
 21
21.9329
 31
0.0000
  0
LINE
  8
16
 10
40.6503
 20
21.9329
 30
0.0000
 11
39.8780
 21
21.6130
 31
0.0000
  0
LINE
  8
16
 10
39.8780
 20
21.6130
 30
0.0000
 11
39.1057
 21
21.9329
 31
0.0000
  0
LINE
  8
16
 10
39.1057
 20
21.9329
 30
0.0000
 11
38.1103
 21
21.9329
 31
0.0000
  0
LINE
  8
16
 10
38.1103
 20
21.9329
 30
0.0000
 11
37.3380
 21
21.6130
 31
0.0000
  0
LINE
  8
16
 10
37.3380
 20
21.6130
 30
0.0000
 11
36.5657
 21
21.9329
 31
0.0000
  0
LINE
  8
16
 10
36.5657
 20
21.9329
 30
0.0000
 11
35.5703
 21
21.9329
 31
0.0000
  0
LINE
  8
16
 10
35.5703
 20
21.9329
 30
0.0000
 11
34.7980
 21
21.6130
 31
0.0000
  0
LINE
  8
16
 10
34.7980
 20
21.6130
 30
0.0000
 11
34.0257
 21
21.9329
 31
0.0000
  0
LINE
  8
16
 10
34.0257
 20
21.9329
 30
0.0000
 11
33.0303
 21
21.9329
 31
0.0000
  0
LINE
  8
16
 10
33.0303
 20
21.9329
 30
0.0000
 11
32.2580
 21
21.6130
 31
0.0000
  0
LINE
  8
16
 10
32.2580
 20
21.6130
 30
0.0000
 11
31.5976
 21
21.8865
 31
0.0000
  0
LINE
  8
16
 10
31.5976
 20
21.8865
 30
0.0000
 11
31.5976
 21
30.6141
 31
0.0000
  0
LINE
  8
16
 10
53.4774
 20
55.3594
 30
0.0000
 11
53.9704
 21
55.8524
 31
0.0000
  0
LINE
  8
16
 10
53.9704
 20
55.8524
 30
0.0000
 11
54.2416
 21
56.1236
 31
0.0000
  0
LINE
  8
16
 10
54.2416
 20
56.1236
 30
0.0000
 11
54.5084
 21
56.7677
 31
0.0000
  0
LINE
  8
16
 10
54.5084
 20
56.7677
 30
0.0000
 11
54.5084
 21
58.5496
 31
0.0000
  0
LINE
  8
16
 10
54.5084
 20
58.5496
 30
0.0000
 11
54.2416
 21
59.1938
 31
0.0000
  0
LINE
  8
16
 10
54.2416
 20
59.1938
 30
0.0000
 11
53.7486
 21
59.6868
 31
0.0000
  0
LINE
  8
16
 10
53.7486
 20
59.6868
 30
0.0000
 11
53.7486
 21
59.6868
 31
0.0000
  0
LINE
  8
16
 10
53.7486
 20
59.6868
 30
0.0000
 11
53.4774
 21
59.9580
 31
0.0000
  0
LINE
  8
16
 10
53.4774
 20
59.9580
 30
0.0000
 11
52.8332
 21
60.2248
 31
0.0000
  0
LINE
  8
16
 10
52.8332
 20
60.2248
 30
0.0000
 11
51.9385
 21
60.2248
 31
0.0000
  0
LINE
  8
16
 10
51.9385
 20
60.2248
 30
0.0000
 11
51.5937
 21
60.2248
 31
0.0000
  0
LINE
  8
16
 10
51.5937
 20
60.2248
 30
0.0000
 11
51.5937
 21
60.2248
 31
0.0000
  0
LINE
  8
16
 10
51.5937
 20
60.2248
 30
0.0000
 11
51.5937
 21
60.2248
 31
0.0000
  0
LINE
  8
16
 10
51.5937
 20
60.2248
 30
0.0000
 11
51.2593
 21
60.0863
 31
0.0000
  0
LINE
  8
16
 10
51.2593
 20
60.0863
 30
0.0000
 11
50.9249
 21
60.2248
 31
0.0000
  0
LINE
  8
16
 10
50.9249
 20
60.2248
 30
0.0000
 11
50.2277
 21
60.2248
 31
0.0000
  0
LINE
  8
16
 10
50.2277
 20
60.2248
 30
0.0000
 11
50.0420
 21
60.1479
 31
0.0000
  0
LINE
  8
16
 10
50.0420
 20
60.1479
 30
0.0000
 11
49.9918
 21
60.1578
 31
0.0000
  0
LINE
  8
16
 10
49.9918
 20
60.1578
 30
0.0000
 11
49.8301
 21
60.2248
 31
0.0000
  0
LINE
  8
16
 10
49.8301
 20
60.2248
 30
0.0000
 11
49.6532
 21
60.2248
 31
0.0000
  0
LINE
  8
16
 10
49.6532
 20
60.2248
 30
0.0000
 11
49.4796
 21
60.2591
 31
0.0000
  0
LINE
  8
16
 10
49.4796
 20
60.2591
 30
0.0000
 11
49.3079
 21
60.2248
 31
0.0000
  0
LINE
  8
16
 10
49.3079
 20
60.2248
 30
0.0000
 11
49.1329
 21
60.2248
 31
0.0000
  0
LINE
  8
16
 10
49.1329
 20
60.2248
 30
0.0000
 11
48.9694
 21
60.1571
 31
0.0000
  0
LINE
  8
16
 10
48.9694
 20
60.1571
 30
0.0000
 11
48.9286
 21
60.1489
 31
0.0000
  0
LINE
  8
16
 10
48.9286
 20
60.1489
 30
0.0000
 11
48.7454
 21
60.2248
 31
0.0000
  0
LINE
  8
16
 10
48.7454
 20
60.2248
 30
0.0000
 11
48.0482
 21
60.2248
 31
0.0000
  0
LINE
  8
16
 10
48.0482
 20
60.2248
 30
0.0000
 11
47.9850
 21
60.1986
 31
0.0000
  0
LINE
  8
16
 10
47.9850
 20
60.1986
 30
0.0000
 11
47.9218
 21
60.2248
 31
0.0000
  0
LINE
  8
16
 10
47.9218
 20
60.2248
 30
0.0000
 11
47.0270
 21
60.2248
 31
0.0000
  0
LINE
  8
16
 10
47.0270
 20
60.2248
 30
0.0000
 11
46.6822
 21
60.2248
 31
0.0000
  0
LINE
  8
16
 10
46.6822
 20
60.2248
 30
0.0000
 11
46.6822
 21
60.2248
 31
0.0000
  0
LINE
  8
16
 10
46.6822
 20
60.2248
 30
0.0000
 11
46.6822
 21
60.2248
 31
0.0000
  0
LINE
  8
16
 10
46.6822
 20
60.2248
 30
0.0000
 11
46.6190
 21
60.1986
 31
0.0000
  0
LINE
  8
16
 10
46.6190
 20
60.1986
 30
0.0000
 11
46.5558
 21
60.2248
 31
0.0000
  0
LINE
  8
16
 10
46.5558
 20
60.2248
 30
0.0000
 11
45.8586
 21
60.2248
 31
0.0000
  0
LINE
  8
16
 10
45.8586
 20
60.2248
 30
0.0000
 11
45.6648
 21
60.1445
 31
0.0000
  0
LINE
  8
16
 10
45.6648
 20
60.1445
 30
0.0000
 11
45.4711
 21
60.2248
 31
0.0000
  0
LINE
  8
16
 10
45.4711
 20
60.2248
 30
0.0000
 11
43.7603
 21
60.2248
 31
0.0000
  0
LINE
  8
16
 10
43.7603
 20
60.2248
 30
0.0000
 11
43.4079
 21
60.2248
 31
0.0000
  0
LINE
  8
16
 10
43.4079
 20
60.2248
 30
0.0000
 11
43.4079
 21
60.2248
 31
0.0000
  0
LINE
  8
16
 10
43.4079
 20
60.2248
 30
0.0000
 11
43.4079
 21
60.2248
 31
0.0000
  0
LINE
  8
16
 10
43.4079
 20
60.2248
 30
0.0000
 11
43.0735
 21
60.0863
 31
0.0000
  0
LINE
  8
16
 10
43.0735
 20
60.0863
 30
0.0000
 11
42.7392
 21
60.2248
 31
0.0000
  0
LINE
  8
16
 10
42.7392
 20
60.2248
 30
0.0000
 11
42.0419
 21
60.2248
 31
0.0000
  0
LINE
  8
16
 10
42.0419
 20
60.2248
 30
0.0000
 11
41.7075
 21
60.0863
 31
0.0000
  0
LINE
  8
16
 10
41.7075
 20
60.0863
 30
0.0000
 11
41.3732
 21
60.2248
 31
0.0000
  0
LINE
  8
16
 10
41.3732
 20
60.2248
 30
0.0000
 11
40.4784
 21
60.2248
 31
0.0000
  0
LINE
  8
16
 10
40.4784
 20
60.2248
 30
0.0000
 11
40.1336
 21
60.2248
 31
0.0000
  0
LINE
  8
16
 10
40.1336
 20
60.2248
 30
0.0000
 11
40.1336
 21
60.2248
 31
0.0000
  0
LINE
  8
16
 10
40.1336
 20
60.2248
 30
0.0000
 11
40.1336
 21
60.2248
 31
0.0000
  0
LINE
  8
16
 10
40.1336
 20
60.2248
 30
0.0000
 11
40.0704
 21
60.1986
 31
0.0000
  0
LINE
  8
16
 10
40.0704
 20
60.1986
 30
0.0000
 11
40.0072
 21
60.2248
 31
0.0000
  0
LINE
  8
16
 10
40.0072
 20
60.2248
 30
0.0000
 11
38.8489
 21
60.2248
 31
0.0000
  0
LINE
  8
16
 10
38.8489
 20
60.2248
 30
0.0000
 11
38.4965
 21
60.2248
 31
0.0000
  0
LINE
  8
16
 10
38.4965
 20
60.2248
 30
0.0000
 11
38.4964
 21
60.2248
 31
0.0000
  0
LINE
  8
16
 10
38.4964
 20
60.2248
 30
0.0000
 11
38.4964
 21
60.2248
 31
0.0000
  0
LINE
  8
16
 10
38.4964
 20
60.2248
 30
0.0000
 11
38.1375
 21
60.0761
 31
0.0000
  0
LINE
  8
16
 10
38.1375
 20
60.0761
 30
0.0000
 11
37.8523
 21
59.9580
 31
0.0000
  0
LINE
  8
16
 10
37.8523
 20
59.9580
 30
0.0000
 11
37.8523
 21
59.9580
 31
0.0000
  0
LINE
  8
16
 10
37.8523
 20
59.9580
 30
0.0000
 11
37.8523
 21
59.9580
 31
0.0000
  0
LINE
  8
16
 10
37.8523
 20
59.9580
 30
0.0000
 11
37.6146
 21
59.7203
 31
0.0000
  0
LINE
  8
16
 10
37.6146
 20
59.7203
 30
0.0000
 11
37.3770
 21
59.9580
 31
0.0000
  0
LINE
  8
16
 10
37.3770
 20
59.9580
 30
0.0000
 11
36.7328
 21
60.2248
 31
0.0000
  0
LINE
  8
16
 10
36.7328
 20
60.2248
 30
0.0000
 11
35.5746
 21
60.2248
 31
0.0000
  0
LINE
  8
16
 10
35.5746
 20
60.2248
 30
0.0000
 11
35.2221
 21
60.2248
 31
0.0000
  0
LINE
  8
16
 10
35.2221
 20
60.2248
 30
0.0000
 11
35.2221
 21
60.2248
 31
0.0000
  0
LINE
  8
16
 10
35.2221
 20
60.2248
 30
0.0000
 11
35.2221
 21
60.2248
 31
0.0000
  0
LINE
  8
16
 10
35.2221
 20
60.2248
 30
0.0000
 11
35.1589
 21
60.1986
 31
0.0000
  0
LINE
  8
16
 10
35.1589
 20
60.1986
 30
0.0000
 11
35.0957
 21
60.2248
 31
0.0000
  0
LINE
  8
16
 10
35.0957
 20
60.2248
 30
0.0000
 11
33.8561
 21
60.2248
 31
0.0000
  0
LINE
  8
16
 10
33.8561
 20
60.2248
 30
0.0000
 11
33.2120
 21
59.9580
 31
0.0000
  0
LINE
  8
16
 10
33.2120
 20
59.9580
 30
0.0000
 11
32.8405
 21
59.5864
 31
0.0000
  0
LINE
  8
16
 10
32.8405
 20
59.5864
 30
0.0000
 11
32.7192
 21
59.7077
 31
0.0000
  0
LINE
  8
16
 10
32.7192
 20
59.7077
 30
0.0000
 11
32.4689
 21
59.9580
 31
0.0000
  0
LINE
  8
16
 10
32.4689
 20
59.9580
 30
0.0000
 11
32.4689
 21
59.9580
 31
0.0000
  0
LINE
  8
16
 10
32.4689
 20
59.9580
 30
0.0000
 11
32.3660
 21
60.0006
 31
0.0000
  0
LINE
  8
16
 10
32.3660
 20
60.0006
 30
0.0000
 11
31.8248
 21
60.2248
 31
0.0000
  0
LINE
  8
16
 10
31.8248
 20
60.2248
 30
0.0000
 11
31.1275
 21
60.2248
 31
0.0000
  0
LINE
  8
16
 10
31.1275
 20
60.2248
 30
0.0000
 11
30.4834
 21
59.9580
 31
0.0000
  0
LINE
  8
16
 10
30.4834
 20
59.9580
 30
0.0000
 11
30.3864
 21
59.8610
 31
0.0000
  0
LINE
  8
16
 10
30.3864
 20
59.8610
 30
0.0000
 11
30.2894
 21
59.9580
 31
0.0000
  0
LINE
  8
16
 10
30.2894
 20
59.9580
 30
0.0000
 11
29.6453
 21
60.2248
 31
0.0000
  0
LINE
  8
16
 10
29.6453
 20
60.2248
 30
0.0000
 11
28.9481
 21
60.2248
 31
0.0000
  0
LINE
  8
16
 10
28.9481
 20
60.2248
 30
0.0000
 11
28.3039
 21
59.9580
 31
0.0000
  0
LINE
  8
16
 10
28.3039
 20
59.9580
 30
0.0000
 11
28.0284
 21
59.6825
 31
0.0000
  0
LINE
  8
16
 10
28.0284
 20
59.6825
 30
0.0000
 11
27.5821
 21
59.6825
 31
0.0000
  0
LINE
  8
16
 10
27.5821
 20
59.6825
 30
0.0000
 11
27.5189
 21
59.6563
 31
0.0000
  0
LINE
  8
16
 10
27.5189
 20
59.6563
 30
0.0000
 11
27.4556
 21
59.6825
 31
0.0000
  0
LINE
  8
16
 10
27.4556
 20
59.6825
 30
0.0000
 11
26.1958
 21
59.6825
 31
0.0000
  0
LINE
  8
16
 10
26.1958
 20
59.6825
 30
0.0000
 11
26.1915
 21
59.6868
 31
0.0000
  0
LINE
  8
16
 10
26.1915
 20
59.6868
 30
0.0000
 11
25.5473
 21
59.9536
 31
0.0000
  0
LINE
  8
16
 10
25.5473
 20
59.9536
 30
0.0000
 11
24.8501
 21
59.9536
 31
0.0000
  0
LINE
  8
16
 10
24.8501
 20
59.9536
 30
0.0000
 11
24.2059
 21
59.6868
 31
0.0000
  0
LINE
  8
16
 10
24.2059
 20
59.6868
 30
0.0000
 11
24.2016
 21
59.6825
 31
0.0000
  0
LINE
  8
16
 10
24.2016
 20
59.6825
 30
0.0000
 11
24.1035
 21
59.6825
 31
0.0000
  0
LINE
  8
16
 10
24.1035
 20
59.6825
 30
0.0000
 11
23.7587
 21
59.6825
 31
0.0000
  0
LINE
  8
16
 10
23.7587
 20
59.6825
 30
0.0000
 11
23.7586
 21
59.6825
 31
0.0000
  0
LINE
  8
16
 10
23.7586
 20
59.6825
 30
0.0000
 11
23.2163
 21
59.6825
 31
0.0000
  0
LINE
  8
16
 10
23.2163
 20
59.6825
 30
0.0000
 11
23.1531
 21
59.6563
 31
0.0000
  0
LINE
  8
16
 10
23.1531
 20
59.6563
 30
0.0000
 11
23.0899
 21
59.6825
 31
0.0000
  0
LINE
  8
16
 10
23.0899
 20
59.6825
 30
0.0000
 11
21.5792
 21
59.6825
 31
0.0000
  0
LINE
  8
16
 10
21.5792
 20
59.6825
 30
0.0000
 11
20.9350
 21
59.4156
 31
0.0000
  0
LINE
  8
16
 10
20.9350
 20
59.4156
 30
0.0000
 11
20.4420
 21
58.9226
 31
0.0000
  0
LINE
  8
16
 10
20.4420
 20
58.9226
 30
0.0000
 11
20.1752
 21
58.2785
 31
0.0000
  0
LINE
  8
16
 10
20.1752
 20
58.2785
 30
0.0000
 11
20.1752
 21
57.5812
 31
0.0000
  0
LINE
  8
16
 10
20.1752
 20
57.5812
 30
0.0000
 11
20.4420
 21
56.9371
 31
0.0000
  0
LINE
  8
16
 10
20.4420
 20
56.9371
 30
0.0000
 11
20.9350
 21
56.4441
 31
0.0000
  0
LINE
  8
16
 10
20.9350
 20
56.4441
 30
0.0000
 11
21.0260
 21
56.4064
 31
0.0000
  0
LINE
  8
16
 10
21.0260
 20
56.4064
 30
0.0000
 11
21.2555
 21
55.8524
 31
0.0000
  0
LINE
  8
16
 10
21.2555
 20
55.8524
 30
0.0000
 11
21.7485
 21
55.3594
 31
0.0000
  0
LINE
  8
16
 10
21.7485
 20
55.3594
 30
0.0000
 11
22.3927
 21
55.0926
 31
0.0000
  0
LINE
  8
16
 10
22.3927
 20
55.0926
 30
0.0000
 11
23.0899
 21
55.0926
 31
0.0000
  0
LINE
  8
16
 10
23.0899
 20
55.0926
 30
0.0000
 11
23.1531
 21
55.1188
 31
0.0000
  0
LINE
  8
16
 10
23.1531
 20
55.1188
 30
0.0000
 11
23.2163
 21
55.0926
 31
0.0000
  0
LINE
  8
16
 10
23.2163
 20
55.0926
 30
0.0000
 11
24.4559
 21
55.0926
 31
0.0000
  0
LINE
  8
16
 10
24.4559
 20
55.0926
 30
0.0000
 11
24.5174
 21
55.1181
 31
0.0000
  0
LINE
  8
16
 10
24.5174
 20
55.1181
 30
0.0000
 11
24.5789
 21
55.0926
 31
0.0000
  0
LINE
  8
16
 10
24.5789
 20
55.0926
 30
0.0000
 11
25.2761
 21
55.0926
 31
0.0000
  0
LINE
  8
16
 10
25.2761
 20
55.0926
 30
0.0000
 11
25.6105
 21
55.2311
 31
0.0000
  0
LINE
  8
16
 10
25.6105
 20
55.2311
 30
0.0000
 11
25.7637
 21
55.1677
 31
0.0000
  0
LINE
  8
16
 10
25.7637
 20
55.1677
 30
0.0000
 11
26.1143
 21
54.8171
 31
0.0000
  0
LINE
  8
16
 10
26.1143
 20
54.8171
 30
0.0000
 11
26.7584
 21
54.5503
 31
0.0000
  0
LINE
  8
16
 10
26.7584
 20
54.5503
 30
0.0000
 11
27.4556
 21
54.5503
 31
0.0000
  0
LINE
  8
16
 10
27.4556
 20
54.5503
 30
0.0000
 11
28.0998
 21
54.8171
 31
0.0000
  0
LINE
  8
16
 10
28.0998
 20
54.8171
 30
0.0000
 11
28.3753
 21
55.0926
 31
0.0000
  0
LINE
  8
16
 10
28.3753
 20
55.0926
 30
0.0000
 11
28.8216
 21
55.0926
 31
0.0000
  0
LINE
  8
16
 10
28.8216
 20
55.0926
 30
0.0000
 11
28.8848
 21
55.1188
 31
0.0000
  0
LINE
  8
16
 10
28.8848
 20
55.1188
 30
0.0000
 11
28.9481
 21
55.0926
 31
0.0000
  0
LINE
  8
16
 10
28.9481
 20
55.0926
 30
0.0000
 11
30.4588
 21
55.0926
 31
0.0000
  0
LINE
  8
16
 10
30.4588
 20
55.0926
 30
0.0000
 11
30.5220
 21
55.1188
 31
0.0000
  0
LINE
  8
16
 10
30.5220
 20
55.1188
 30
0.0000
 11
30.5852
 21
55.0926
 31
0.0000
  0
LINE
  8
16
 10
30.5852
 20
55.0926
 30
0.0000
 11
31.2824
 21
55.0926
 31
0.0000
  0
LINE
  8
16
 10
31.2824
 20
55.0926
 30
0.0000
 11
31.4762
 21
55.1728
 31
0.0000
  0
LINE
  8
16
 10
31.4762
 20
55.1728
 30
0.0000
 11
31.6699
 21
55.0926
 31
0.0000
  0
LINE
  8
16
 10
31.6699
 20
55.0926
 30
0.0000
 11
32.3671
 21
55.0926
 31
0.0000
  0
LINE
  8
16
 10
32.3671
 20
55.0926
 30
0.0000
 11
33.0113
 21
55.3594
 31
0.0000
  0
LINE
  8
16
 10
33.0113
 20
55.3594
 30
0.0000
 11
33.1116
 21
55.4598
 31
0.0000
  0
LINE
  8
16
 10
33.1116
 20
55.4598
 30
0.0000
 11
33.2120
 21
55.3594
 31
0.0000
  0
LINE
  8
16
 10
33.2120
 20
55.3594
 30
0.0000
 11
33.8561
 21
55.0926
 31
0.0000
  0
LINE
  8
16
 10
33.8561
 20
55.0926
 30
0.0000
 11
35.0957
 21
55.0926
 31
0.0000
  0
LINE
  8
16
 10
35.0957
 20
55.0926
 30
0.0000
 11
35.5657
 21
55.2873
 31
0.0000
  0
LINE
  8
16
 10
35.5657
 20
55.2873
 30
0.0000
 11
36.0356
 21
55.0926
 31
0.0000
  0
LINE
  8
16
 10
36.0356
 20
55.0926
 30
0.0000
 11
36.7328
 21
55.0926
 31
0.0000
  0
LINE
  8
16
 10
36.7328
 20
55.0926
 30
0.0000
 11
37.3770
 21
55.3594
 31
0.0000
  0
LINE
  8
16
 10
37.3770
 20
55.3594
 30
0.0000
 11
37.6694
 21
55.6518
 31
0.0000
  0
LINE
  8
16
 10
37.6694
 20
55.6518
 30
0.0000
 11
37.6072
 21
55.5016
 31
0.0000
  0
LINE
  8
16
 10
37.6072
 20
55.5016
 30
0.0000
 11
37.6072
 21
54.8044
 31
0.0000
  0
LINE
  8
16
 10
37.6072
 20
54.8044
 30
0.0000
 11
37.6312
 21
54.7463
 31
0.0000
  0
LINE
  8
16
 10
37.6312
 20
54.7463
 30
0.0000
 11
37.6072
 21
54.6881
 31
0.0000
  0
LINE
  8
16
 10
37.6072
 20
54.6881
 30
0.0000
 11
37.6072
 21
54.4170
 31
0.0000
  0
LINE
  8
16
 10
37.6072
 20
54.4170
 30
0.0000
 11
37.6072
 21
54.4170
 31
0.0000
  0
LINE
  8
16
 10
37.6072
 20
54.4170
 30
0.0000
 11
37.6072
 21
54.0646
 31
0.0000
  0
LINE
  8
16
 10
37.6072
 20
54.0646
 30
0.0000
 11
37.6072
 21
53.7197
 31
0.0000
  0
LINE
  8
16
 10
37.6072
 20
53.7197
 30
0.0000
 11
37.6072
 21
53.7197
 31
0.0000
  0
LINE
  8
16
 10
37.6072
 20
53.7197
 30
0.0000
 11
37.6072
 21
53.7197
 31
0.0000
  0
LINE
  8
16
 10
37.6072
 20
53.7197
 30
0.0000
 11
37.6751
 21
53.5558
 31
0.0000
  0
LINE
  8
16
 10
37.6751
 20
53.5558
 30
0.0000
 11
37.8740
 21
53.0756
 31
0.0000
  0
LINE
  8
16
 10
37.8740
 20
53.0756
 30
0.0000
 11
37.8740
 21
53.0756
 31
0.0000
  0
LINE
  8
16
 10
37.8740
 20
53.0756
 30
0.0000
 11
37.8740
 21
53.0756
 31
0.0000
  0
LINE
  8
16
 10
37.8740
 20
53.0756
 30
0.0000
 11
38.1326
 21
52.8169
 31
0.0000
  0
LINE
  8
16
 10
38.1326
 20
52.8169
 30
0.0000
 11
38.3670
 21
52.5826
 31
0.0000
  0
LINE
  8
16
 10
38.3670
 20
52.5826
 30
0.0000
 11
38.3670
 21
52.5826
 31
0.0000
  0
LINE
  8
16
 10
38.3670
 20
52.5826
 30
0.0000
 11
38.3795
 21
52.5701
 31
0.0000
  0
LINE
  8
16
 10
38.3795
 20
52.5701
 30
0.0000
 11
38.6382
 21
52.3114
 31
0.0000
  0
LINE
  8
16
 10
38.6382
 20
52.3114
 30
0.0000
 11
38.6382
 21
52.3114
 31
0.0000
  0
LINE
  8
16
 10
38.6382
 20
52.3114
 30
0.0000
 11
38.8867
 21
52.2085
 31
0.0000
  0
LINE
  8
16
 10
38.8867
 20
52.2085
 30
0.0000
 11
39.2823
 21
52.0446
 31
0.0000
  0
LINE
  8
16
 10
39.2823
 20
52.0446
 30
0.0000
 11
39.2823
 21
52.0446
 31
0.0000
  0
LINE
  8
16
 10
39.2823
 20
52.0446
 30
0.0000
 11
39.2823
 21
52.0446
 31
0.0000
  0
LINE
  8
16
 10
39.2823
 20
52.0446
 30
0.0000
 11
39.6271
 21
52.0446
 31
0.0000
  0
LINE
  8
16
 10
39.6271
 20
52.0446
 30
0.0000
 11
40.5219
 21
52.0446
 31
0.0000
  0
LINE
  8
16
 10
40.5219
 20
52.0446
 30
0.0000
 11
40.5851
 21
52.0708
 31
0.0000
  0
LINE
  8
16
 10
40.5851
 20
52.0708
 30
0.0000
 11
40.6483
 21
52.0446
 31
0.0000
  0
LINE
  8
16
 10
40.6483
 20
52.0446
 30
0.0000
 11
42.4302
 21
52.0446
 31
0.0000
  0
LINE
  8
16
 10
42.4302
 20
52.0446
 30
0.0000
 11
42.6290
 21
52.1269
 31
0.0000
  0
LINE
  8
16
 10
42.6290
 20
52.1269
 30
0.0000
 11
42.8278
 21
52.0446
 31
0.0000
  0
LINE
  8
16
 10
42.8278
 20
52.0446
 30
0.0000
 11
43.5250
 21
52.0446
 31
0.0000
  0
LINE
  8
16
 10
43.5250
 20
52.0446
 30
0.0000
 11
44.0663
 21
52.2688
 31
0.0000
  0
LINE
  8
16
 10
44.0663
 20
52.2688
 30
0.0000
 11
44.1692
 21
52.3114
 31
0.0000
  0
LINE
  8
16
 10
44.1692
 20
52.3114
 30
0.0000
 11
44.1692
 21
52.3114
 31
0.0000
  0
LINE
  8
16
 10
44.1692
 20
52.3114
 30
0.0000
 11
44.1692
 21
52.3114
 31
0.0000
  0
LINE
  8
16
 10
44.1692
 20
52.3114
 30
0.0000
 11
44.4195
 21
52.5617
 31
0.0000
  0
LINE
  8
16
 10
44.4195
 20
52.5617
 30
0.0000
 11
44.6780
 21
52.8202
 31
0.0000
  0
LINE
  8
16
 10
44.6780
 20
52.8202
 30
0.0000
 11
44.6813
 21
52.8169
 31
0.0000
  0
LINE
  8
16
 10
44.6813
 20
52.8169
 30
0.0000
 11
44.9156
 21
52.5826
 31
0.0000
  0
LINE
  8
16
 10
44.9156
 20
52.5826
 30
0.0000
 11
44.9156
 21
52.5826
 31
0.0000
  0
LINE
  8
16
 10
44.9156
 20
52.5826
 30
0.0000
 11
44.9281
 21
52.5701
 31
0.0000
  0
LINE
  8
16
 10
44.9281
 20
52.5701
 30
0.0000
 11
45.1868
 21
52.3114
 31
0.0000
  0
LINE
  8
16
 10
45.1868
 20
52.3114
 30
0.0000
 11
45.1868
 21
52.3114
 31
0.0000
  0
LINE
  8
16
 10
45.1868
 20
52.3114
 30
0.0000
 11
45.1868
 21
52.3114
 31
0.0000
  0
LINE
  8
16
 10
45.1868
 20
52.3114
 30
0.0000
 11
45.4353
 21
52.2085
 31
0.0000
  0
LINE
  8
16
 10
45.4353
 20
52.2085
 30
0.0000
 11
45.8309
 21
52.0446
 31
0.0000
  0
LINE
  8
16
 10
45.8309
 20
52.0446
 30
0.0000
 11
45.8309
 21
52.0446
 31
0.0000
  0
LINE
  8
16
 10
45.8309
 20
52.0446
 30
0.0000
 11
45.8310
 21
52.0446
 31
0.0000
  0
LINE
  8
16
 10
45.8310
 20
52.0446
 30
0.0000
 11
46.1758
 21
52.0446
 31
0.0000
  0
LINE
  8
16
 10
46.1758
 20
52.0446
 30
0.0000
 11
47.0705
 21
52.0446
 31
0.0000
  0
LINE
  8
16
 10
47.0705
 20
52.0446
 30
0.0000
 11
47.1337
 21
52.0708
 31
0.0000
  0
LINE
  8
16
 10
47.1337
 20
52.0708
 30
0.0000
 11
47.1969
 21
52.0446
 31
0.0000
  0
LINE
  8
16
 10
47.1969
 20
52.0446
 30
0.0000
 11
47.8942
 21
52.0446
 31
0.0000
  0
LINE
  8
16
 10
47.8942
 20
52.0446
 30
0.0000
 11
48.0879
 21
52.1248
 31
0.0000
  0
LINE
  8
16
 10
48.0879
 20
52.1248
 30
0.0000
 11
48.2816
 21
52.0446
 31
0.0000
  0
LINE
  8
16
 10
48.2816
 20
52.0446
 30
0.0000
 11
50.0703
 21
52.0446
 31
0.0000
  0
LINE
  8
16
 10
50.0703
 20
52.0446
 30
0.0000
 11
50.2691
 21
52.1269
 31
0.0000
  0
LINE
  8
16
 10
50.2691
 20
52.1269
 30
0.0000
 11
50.4679
 21
52.0446
 31
0.0000
  0
LINE
  8
16
 10
50.4679
 20
52.0446
 30
0.0000
 11
51.1651
 21
52.0446
 31
0.0000
  0
LINE
  8
16
 10
51.1651
 20
52.0446
 30
0.0000
 11
51.7063
 21
52.2688
 31
0.0000
  0
LINE
  8
16
 10
51.7063
 20
52.2688
 30
0.0000
 11
51.8092
 21
52.3114
 31
0.0000
  0
LINE
  8
16
 10
51.8092
 20
52.3114
 30
0.0000
 11
51.8092
 21
52.3114
 31
0.0000
  0
LINE
  8
16
 10
51.8092
 20
52.3114
 30
0.0000
 11
52.0595
 21
52.5617
 31
0.0000
  0
LINE
  8
16
 10
52.0595
 20
52.5617
 30
0.0000
 11
52.8446
 21
53.3468
 31
0.0000
  0
LINE
  8
16
 10
52.8446
 20
53.3468
 30
0.0000
 11
53.1114
 21
53.9909
 31
0.0000
  0
LINE
  8
16
 10
53.1114
 20
53.9909
 30
0.0000
 11
53.1114
 21
55.2078
 31
0.0000
  0
LINE
  8
16
 10
53.1114
 20
55.2078
 30
0.0000
 11
53.4774
 21
55.3594
 31
0.0000
  0
LINE
  8
16
 10
34.7891
 20
16.2560
 30
0.0000
 11
54.0535
 21
16.2560
 31
0.0000
  0
LINE
  8
16
 10
36.9029
 20
17.0688
 30
0.0000
 11
37.7731
 21
17.0688
 31
0.0000
  0
LINE
  8
16
 10
39.4429
 20
17.0688
 30
0.0000
 11
40.3131
 21
17.0688
 31
0.0000
  0
LINE
  8
16
 10
41.9829
 20
17.0688
 30
0.0000
 11
45.3931
 21
17.0688
 31
0.0000
  0
LINE
  8
16
 10
47.0629
 20
17.0688
 30
0.0000
 11
47.9331
 21
17.0688
 31
0.0000
  0
LINE
  8
16
 10
49.6029
 20
17.0688
 30
0.0000
 11
50.4731
 21
17.0688
 31
0.0000
  0
LINE
  8
16
 10
52.1429
 20
17.0688
 30
0.0000
 11
52.5924
 21
17.0688
 31
0.0000
  0
LINE
  8
16
 10
43.1368
 20
17.8816
 30
0.0000
 11
44.2392
 21
17.8816
 31
0.0000
  0
LINE
  8
16
 10
43.6880
 20
18.6944
 30
0.0000
 11
43.6880
 21
18.6944
 31
0.0000
  0
LINE
  8
16
 10
43.6880
 20
19.5072
 30
0.0000
 11
43.6880
 21
19.5072
 31
0.0000
  0
LINE
  8
16
 10
58.1406
 20
19.5072
 30
0.0000
 11
58.2422
 21
19.5072
 31
0.0000
  0
LINE
  8
16
 10
43.6880
 20
20.3200
 30
0.0000
 11
43.6880
 21
20.3200
 31
0.0000
  0
LINE
  8
16
 10
58.0180
 20
20.3200
 30
0.0000
 11
58.2422
 21
20.3200
 31
0.0000
  0
LINE
  8
16
 10
42.9844
 20
21.1328
 30
0.0000
 11
44.3916
 21
21.1328
 31
0.0000
  0
LINE
  8
16
 10
57.6650
 20
21.1328
 30
0.0000
 11
58.2422
 21
21.1328
 31
0.0000
  0
LINE
  8
16
 10
31.5976
 20
21.9456
 30
0.0000
 11
52.7448
 21
21.9456
 31
0.0000
  0
LINE
  8
16
 10
56.9832
 20
21.9456
 30
0.0000
 11
58.2422
 21
21.9456
 31
0.0000
  0
LINE
  8
16
 10
31.5976
 20
22.7584
 30
0.0000
 11
58.2422
 21
22.7584
 31
0.0000
  0
LINE
  8
16
 10
31.5976
 20
23.5712
 30
0.0000
 11
58.2422
 21
23.5712
 31
0.0000
  0
LINE
  8
16
 10
31.5976
 20
24.3840
 30
0.0000
 11
58.2422
 21
24.3840
 31
0.0000
  0
LINE
  8
16
 10
31.5976
 20
25.1968
 30
0.0000
 11
58.2422
 21
25.1968
 31
0.0000
  0
LINE
  8
16
 10
31.5976
 20
26.0096
 30
0.0000
 11
58.2422
 21
26.0096
 31
0.0000
  0
LINE
  8
16
 10
31.5976
 20
26.8224
 30
0.0000
 11
58.2422
 21
26.8224
 31
0.0000
  0
LINE
  8
16
 10
31.5976
 20
27.6352
 30
0.0000
 11
58.2422
 21
27.6352
 31
0.0000
  0
LINE
  8
16
 10
31.5976
 20
28.4480
 30
0.0000
 11
58.2422
 21
28.4480
 31
0.0000
  0
LINE
  8
16
 10
31.5976
 20
29.2608
 30
0.0000
 11
58.2422
 21
29.2608
 31
0.0000
  0
LINE
  8
16
 10
31.5976
 20
30.0736
 30
0.0000
 11
58.2422
 21
30.0736
 31
0.0000
  0
LINE
  8
16
 10
31.5976
 20
30.8864
 30
0.0000
 11
58.2422
 21
30.8864
 31
0.0000
  0
LINE
  8
16
 10
31.5105
 20
31.6992
 30
0.0000
 11
58.2422
 21
31.6992
 31
0.0000
  0
LINE
  8
16
 10
30.9792
 20
32.5120
 30
0.0000
 11
58.2422
 21
32.5120
 31
0.0000
  0
LINE
  8
16
 10
30.0393
 20
33.3248
 30
0.0000
 11
58.2422
 21
33.3248
 31
0.0000
  0
LINE
  8
16
 10
29.2266
 20
34.1376
 30
0.0000
 11
58.2422
 21
34.1376
 31
0.0000
  0
LINE
  8
16
 10
9.6178
 20
34.9504
 30
0.0000
 11
58.2422
 21
34.9504
 31
0.0000
  0
LINE
  8
16
 10
9.4125
 20
35.7632
 30
0.0000
 11
58.2422
 21
35.7632
 31
0.0000
  0
LINE
  8
16
 10
8.8811
 20
36.5760
 30
0.0000
 11
58.2422
 21
36.5760
 31
0.0000
  0
LINE
  8
16
 10
8.1002
 20
37.3888
 30
0.0000
 11
10.1065
 21
37.3888
 31
0.0000
  0
LINE
  8
16
 10
13.0075
 20
37.3888
 30
0.0000
 11
58.2422
 21
37.3888
 31
0.0000
  0
LINE
  8
16
 10
13.8203
 20
38.2016
 30
0.0000
 11
14.1595
 21
38.2016
 31
0.0000
  0
LINE
  8
16
 10
14.9860
 20
38.2016
 30
0.0000
 11
14.9860
 21
38.2016
 31
0.0000
  0
LINE
  8
16
 10
15.8125
 20
38.2016
 30
0.0000
 11
58.2422
 21
38.2016
 31
0.0000
  0
LINE
  8
16
 10
14.9860
 20
39.0144
 30
0.0000
 11
14.9860
 21
39.0144
 31
0.0000
  0
LINE
  8
16
 10
16.3068
 20
39.0144
 30
0.0000
 11
58.2422
 21
39.0144
 31
0.0000
  0
LINE
  8
16
 10
14.9860
 20
39.8272
 30
0.0000
 11
14.9860
 21
39.8272
 31
0.0000
  0
LINE
  8
16
 10
16.2697
 20
39.8272
 30
0.0000
 11
58.2422
 21
39.8272
 31
0.0000
  0
LINE
  8
16
 10
13.4647
 20
40.6400
 30
0.0000
 11
58.2422
 21
40.6400
 31
0.0000
  0
LINE
  8
16
 10
12.6519
 20
41.4528
 30
0.0000
 11
58.2422
 21
41.4528
 31
0.0000
  0
LINE
  8
16
 10
9.1059
 20
42.2656
 30
0.0000
 11
58.2422
 21
42.2656
 31
0.0000
  0
LINE
  8
16
 10
8.9859
 20
43.0784
 30
0.0000
 11
58.2422
 21
43.0784
 31
0.0000
  0
LINE
  8
16
 10
8.9228
 20
43.8912
 30
0.0000
 11
58.2422
 21
43.8912
 31
0.0000
  0
LINE
  8
16
 10
9.1059
 20
44.7040
 30
0.0000
 11
58.2422
 21
44.7040
 31
0.0000
  0
LINE
  8
16
 10
2.2098
 20
45.5168
 30
0.0000
 11
2.7458
 21
45.5168
 31
0.0000
  0
LINE
  8
16
 10
4.0640
 20
45.5168
 30
0.0000
 11
4.0640
 21
45.5168
 31
0.0000
  0
LINE
  8
16
 10
9.0280
 20
45.5168
 30
0.0000
 11
58.2422
 21
45.5168
 31
0.0000
  0
LINE
  8
16
 10
2.2098
 20
46.3296
 30
0.0000
 11
4.5644
 21
46.3296
 31
0.0000
  0
LINE
  8
16
 10
8.6436
 20
46.3296
 30
0.0000
 11
58.2422
 21
46.3296
 31
0.0000
  0
LINE
  8
16
 10
2.2098
 20
47.1424
 30
0.0000
 11
5.6464
 21
47.1424
 31
0.0000
  0
LINE
  8
16
 10
7.5616
 20
47.1424
 30
0.0000
 11
58.2422
 21
47.1424
 31
0.0000
  0
LINE
  8
16
 10
2.2098
 20
47.9552
 30
0.0000
 11
58.2422
 21
47.9552
 31
0.0000
  0
LINE
  8
16
 10
2.2098
 20
48.7680
 30
0.0000
 11
58.2422
 21
48.7680
 31
0.0000
  0
LINE
  8
16
 10
2.2098
 20
49.5808
 30
0.0000
 11
58.2422
 21
49.5808
 31
0.0000
  0
LINE
  8
16
 10
2.2098
 20
50.3936
 30
0.0000
 11
58.2422
 21
50.3936
 31
0.0000
  0
LINE
  8
16
 10
2.2098
 20
51.2064
 30
0.0000
 11
58.2422
 21
51.2064
 31
0.0000
  0
LINE
  8
16
 10
2.2098
 20
52.0192
 30
0.0000
 11
58.2422
 21
52.0192
 31
0.0000
  0
LINE
  8
16
 10
2.2098
 20
52.8320
 30
0.0000
 11
38.1176
 21
52.8320
 31
0.0000
  0
LINE
  8
16
 10
52.3298
 20
52.8320
 30
0.0000
 11
58.2422
 21
52.8320
 31
0.0000
  0
LINE
  8
16
 10
2.2098
 20
53.6448
 30
0.0000
 11
37.6382
 21
53.6448
 31
0.0000
  0
LINE
  8
16
 10
52.9680
 20
53.6448
 30
0.0000
 11
58.2422
 21
53.6448
 31
0.0000
  0
LINE
  8
16
 10
2.2098
 20
54.4576
 30
0.0000
 11
37.6072
 21
54.4576
 31
0.0000
  0
LINE
  8
16
 10
53.1114
 20
54.4576
 30
0.0000
 11
58.2422
 21
54.4576
 31
0.0000
  0
LINE
  8
16
 10
2.2098
 20
55.2704
 30
0.0000
 11
21.9634
 21
55.2704
 31
0.0000
  0
LINE
  8
16
 10
32.7963
 20
55.2704
 30
0.0000
 11
33.4269
 21
55.2704
 31
0.0000
  0
LINE
  8
16
 10
35.5249
 20
55.2704
 30
0.0000
 11
35.6064
 21
55.2704
 31
0.0000
  0
LINE
  8
16
 10
37.1621
 20
55.2704
 30
0.0000
 11
37.6072
 21
55.2704
 31
0.0000
  0
LINE
  8
16
 10
53.2625
 20
55.2704
 30
0.0000
 11
58.2422
 21
55.2704
 31
0.0000
  0
LINE
  8
16
 10
2.2098
 20
56.0832
 30
0.0000
 11
21.1599
 21
56.0832
 31
0.0000
  0
LINE
  8
16
 10
54.2012
 20
56.0832
 30
0.0000
 11
57.9383
 21
56.0832
 31
0.0000
  0
LINE
  8
16
 10
2.2098
 20
56.8960
 30
0.0000
 11
20.4831
 21
56.8960
 31
0.0000
  0
LINE
  8
16
 10
54.5084
 20
56.8960
 30
0.0000
 11
57.1255
 21
56.8960
 31
0.0000
  0
LINE
  8
16
 10
2.2098
 20
57.7088
 30
0.0000
 11
20.1752
 21
57.7088
 31
0.0000
  0
LINE
  8
16
 10
54.5084
 20
57.7088
 30
0.0000
 11
56.3127
 21
57.7088
 31
0.0000
  0
LINE
  8
16
 10
2.2098
 20
58.5216
 30
0.0000
 11
20.2759
 21
58.5216
 31
0.0000
  0
LINE
  8
16
 10
54.5084
 20
58.5216
 30
0.0000
 11
55.4999
 21
58.5216
 31
0.0000
  0
LINE
  8
16
 10
2.2098
 20
59.3344
 30
0.0000
 11
3.6326
 21
59.3344
 31
0.0000
  0
LINE
  8
16
 10
4.4954
 20
59.3344
 30
0.0000
 11
20.8538
 21
59.3344
 31
0.0000
  0
LINE
  8
16
 10
54.1010
 20
59.3344
 30
0.0000
 11
54.6871
 21
59.3344
 31
0.0000
  0
LINE
  8
16
 10
6.2340
 20
60.1472
 30
0.0000
 11
28.7608
 21
60.1472
 31
0.0000
  0
LINE
  8
16
 10
29.8326
 20
60.1472
 30
0.0000
 11
30.9402
 21
60.1472
 31
0.0000
  0
LINE
  8
16
 10
32.0121
 20
60.1472
 30
0.0000
 11
33.6688
 21
60.1472
 31
0.0000
  0
LINE
  8
16
 10
36.9202
 20
60.1472
 30
0.0000
 11
38.3091
 21
60.1472
 31
0.0000
  0
LINE
  8
16
 10
41.5605
 20
60.1472
 30
0.0000
 11
41.8546
 21
60.1472
 31
0.0000
  0
LINE
  8
16
 10
42.9265
 20
60.1472
 30
0.0000
 11
43.2206
 21
60.1472
 31
0.0000
  0
LINE
  8
16
 10
45.6584
 20
60.1472
 30
0.0000
 11
45.6713
 21
60.1472
 31
0.0000
  0
LINE
  8
16
 10
51.1122
 20
60.1472
 30
0.0000
 11
51.4064
 21
60.1472
 31
0.0000
  0
LINE
  8
16
 10
53.0206
 20
60.1472
 30
0.0000
 11
53.8743
 21
60.1472
 31
0.0000
  0
LINE
  8
16
 10
6.8943
 20
60.9600
 30
0.0000
 11
53.0615
 21
60.9600
 31
0.0000
  0
LINE
  8
16
 10
7.2316
 20
61.7728
 30
0.0000
 11
52.2487
 21
61.7728
 31
0.0000
  0
LINE
  8
16
 10
7.3406
 20
62.5856
 30
0.0000
 11
34.4179
 21
62.5856
 31
0.0000
  0
LINE
  8
16
 10
7.2452
 20
63.3984
 30
0.0000
 11
33.6051
 21
63.3984
 31
0.0000
  0
LINE
  8
16
 10
6.9236
 20
64.2112
 30
0.0000
 11
32.7923
 21
64.2112
 31
0.0000
  0
LINE
  8
16
 10
6.2848
 20
65.0240
 30
0.0000
 11
32.4612
 21
65.0240
 31
0.0000
  0
LINE
  8
16
 10
21.4716
 20
65.8368
 30
0.0000
 11
22.2164
 21
65.8368
 31
0.0000
  0
LINE
  8
16
 10
26.5516
 20
65.8368
 30
0.0000
 11
30.3200
 21
65.8368
 31
0.0000
  0
LINE
  8
16
 10
21.8059
 20
66.6496
 30
0.0000
 11
21.8821
 21
66.6496
 31
0.0000
  0
LINE
  8
16
 10
26.9240
 20
66.6496
 30
0.0000
 11
26.9240
 21
66.6496
 31
0.0000
  0
LINE
  8
16
 10
27.9840
 20
66.6496
 30
0.0000
 11
28.4040
 21
66.6496
 31
0.0000
  0
LINE
  8
16
 10
29.4640
 20
66.6496
 30
0.0000
 11
29.4640
 21
66.6496
 31
0.0000
  0
LINE
  8
16
 10
21.8059
 20
67.4624
 30
0.0000
 11
21.8821
 21
67.4624
 31
0.0000
  0
LINE
  8
16
 10
26.9240
 20
67.4624
 30
0.0000
 11
26.9240
 21
67.4624
 31
0.0000
  0
LINE
  8
16
 10
29.4640
 20
67.4624
 30
0.0000
 11
29.4640
 21
67.4624
 31
0.0000
  0
LINE
  8
16
 10
21.8059
 20
68.2752
 30
0.0000
 11
21.8821
 21
68.2752
 31
0.0000
  0
LINE
  8
16
 10
4.0640
 20
44.8310
 30
0.0000
 11
4.0640
 21
47.3710
 31
0.0000
  0
LINE
  8
16
 10
4.0640
 20
47.3710
 30
0.0000
 11
4.0640
 21
56.6420
 31
0.0000
  0
LINE
  8
16
 10
4.0640
 20
56.6420
 30
0.0000
 11
10.0330
 21
62.6110
 31
0.0000
  0
LINE
  8
16
 10
10.0330
 20
62.6110
 30
0.0000
 11
23.7490
 21
62.6110
 31
0.0000
  0
LINE
  8
16
 10
23.7490
 20
62.6110
 30
0.0000
 11
26.9240
 21
65.7860
 31
0.0000
  0
LINE
  8
16
 10
26.9240
 20
65.7860
 30
0.0000
 11
26.9240
 21
67.6910
 31
0.0000
  0
LINE
  8
16
 10
26.9240
 20
67.6910
 30
0.0000
 11
29.4640
 21
67.6910
 31
0.0000
  0
LINE
  8
16
 10
43.6880
 20
19.4310
 30
0.0000
 11
43.6880
 21
18.1610
 31
0.0000
  0
LINE
  8
16
 10
43.6880
 20
18.1610
 30
0.0000
 11
46.7360
 21
15.1130
 31
0.0000
  0
LINE
  8
16
 10
46.7360
 20
12.4090
 30
0.0000
 11
48.0180
 21
11.1270
 31
0.0000
  0
LINE
  8
16
 10
14.0970
 20
39.2430
 30
0.0000
 11
14.0970
 21
40.3860
 31
0.0000
  0
LINE
  8
16
 10
14.0970
 20
40.3860
 30
0.0000
 11
13.2080
 21
41.2750
 31
0.0000
  0
LINE
  8
16
 10
13.2080
 20
41.2750
 30
0.0000
 11
9.6520
 21
41.2750
 31
0.0000
  0
LINE
  8
16
 10
9.6520
 20
41.2750
 30
0.0000
 11
9.1440
 21
41.7830
 31
0.0000
  0
LINE
  8
16
 10
9.1440
 20
41.7830
 30
0.0000
 11
9.1440
 21
46.3550
 31
0.0000
  0
LINE
  8
16
 10
9.1440
 20
46.3550
 30
0.0000
 11
8.1280
 21
47.3710
 31
0.0000
  0
LINE
  8
16
 10
8.1280
 20
47.3710
 30
0.0000
 11
4.0640
 21
47.3710
 31
0.0000
  0
LINE
  8
16
 10
14.9860
 20
39.2430
 30
0.0000
 11
14.9860
 21
36.1950
 31
0.0000
  0
LINE
  8
16
 10
14.9860
 20
36.1950
 30
0.0000
 11
16.6370
 21
34.5440
 31
0.0000
  0
LINE
  8
16
 10
16.6370
 20
34.5440
 30
0.0000
 11
28.7020
 21
34.5440
 31
0.0000
  0
LINE
  8
16
 10
28.7020
 20
34.5440
 30
0.0000
 11
32.7660
 21
30.4800
 31
0.0000
  0
LINE
  8
16
 10
32.7660
 20
30.4800
 30
0.0000
 11
32.7660
 21
22.0980
 31
0.0000
  0
LINE
  8
16
 10
32.7660
 20
22.0980
 30
0.0000
 11
33.2740
 21
21.5900
 31
0.0000
  0
LINE
  8
16
 10
33.2740
 20
21.5900
 30
0.0000
 11
42.5450
 21
21.5900
 31
0.0000
  0
LINE
  8
16
 10
42.5450
 20
21.5900
 30
0.0000
 11
43.5610
 21
20.5740
 31
0.0000
  0
LINE
  8
16
 10
43.5610
 20
20.5740
 30
0.0000
 11
43.5610
 21
19.5580
 31
0.0000
  0
LINE
  8
16
 10
43.5610
 20
19.5580
 30
0.0000
 11
43.6880
 21
19.4310
 31
0.0000
  0
LINE
  8
16
 10
46.7360
 20
15.1130
 30
0.0000
 11
46.7360
 21
12.4090
 31
0.0000
  0
LINE
  8
16
 10
11.6840
 20
19.4310
 30
0.0000
 11
11.6840
 21
18.0340
 31
0.0000
  0
LINE
  8
16
 10
11.6840
 20
18.0340
 30
0.0000
 11
13.8430
 21
15.8750
 31
0.0000
  0
LINE
  8
16
 10
13.8430
 20
15.8750
 30
0.0000
 11
25.6540
 21
15.8750
 31
0.0000
  0
LINE
  8
16
 10
25.6540
 20
15.8750
 30
0.0000
 11
26.4160
 21
15.1130
 31
0.0000
  0
LINE
  8
16
 10
26.4160
 20
12.4090
 30
0.0000
 11
27.6980
 21
11.1270
 31
0.0000
  0
LINE
  8
16
 10
26.4160
 20
15.1130
 30
0.0000
 11
26.4160
 21
12.4090
 31
0.0000
  0
LINE
  8
16
 10
6.6040
 20
39.7510
 30
0.0000
 11
11.0490
 21
39.7510
 31
0.0000
  0
LINE
  8
16
 10
11.0490
 20
39.7510
 30
0.0000
 11
11.5570
 21
39.2430
 31
0.0000
  0
LINE
  8
16
 10
26.0350
 20
26.6700
 30
0.0000
 11
26.0350
 21
17.2720
 31
0.0000
  0
LINE
  8
16
 10
26.0350
 20
17.2720
 30
0.0000
 11
27.5590
 21
15.7480
 31
0.0000
  0
LINE
  8
16
 10
27.5590
 20
15.7480
 30
0.0000
 11
27.5590
 21
13.8060
 31
0.0000
  0
LINE
  8
16
 10
27.5590
 20
13.8060
 30
0.0000
 11
27.6980
 21
13.6670
 31
0.0000
  0
LINE
  8
16
 10
11.5570
 20
29.0830
 30
0.0000
 11
14.9860
 21
29.0830
 31
0.0000
  0
LINE
  8
16
 10
14.9860
 20
29.0830
 30
0.0000
 11
15.2400
 21
29.0830
 31
0.0000
  0
LINE
  8
16
 10
14.9860
 20
29.0830
 30
0.0000
 11
23.6220
 21
29.0830
 31
0.0000
  0
LINE
  8
16
 10
23.6220
 20
29.0830
 30
0.0000
 11
26.0350
 21
26.6700
 31
0.0000
  0
LINE
  8
16
 10
30.2380
 20
13.6670
 30
0.0000
 11
30.2380
 21
17.8950
 31
0.0000
  0
LINE
  8
16
 10
4.0640
 20
42.2910
 30
0.0000
 11
3.3020
 21
42.2910
 31
0.0000
  0
LINE
  8
16
 10
3.3020
 20
42.2910
 30
0.0000
 11
2.6670
 21
41.6560
 31
0.0000
  0
LINE
  8
16
 10
29.7180
 20
31.1150
 30
0.0000
 11
29.7180
 21
30.9880
 31
0.0000
  0
LINE
  8
16
 10
29.7180
 20
30.9880
 30
0.0000
 11
29.7180
 21
18.4150
 31
0.0000
  0
LINE
  8
16
 10
29.7180
 20
18.4150
 30
0.0000
 11
30.2380
 21
17.8950
 31
0.0000
  0
LINE
  8
16
 10
27.6860
 20
33.0200
 30
0.0000
 11
29.7180
 21
30.9880
 31
0.0000
  0
LINE
  8
16
 10
2.6670
 20
41.6560
 30
0.0000
 11
2.5400
 21
41.6560
 31
0.0000
  0
LINE
  8
16
 10
2.5400
 20
41.6560
 30
0.0000
 11
2.5400
 21
37.0840
 31
0.0000
  0
LINE
  8
16
 10
2.5400
 20
37.0840
 30
0.0000
 11
5.7150
 21
37.0840
 31
0.0000
  0
LINE
  8
16
 10
5.7150
 20
37.0840
 30
0.0000
 11
7.6200
 21
35.1790
 31
0.0000
  0
LINE
  8
16
 10
7.6200
 20
35.1790
 30
0.0000
 11
7.6200
 21
34.2900
 31
0.0000
  0
LINE
  8
16
 10
7.6200
 20
34.2900
 30
0.0000
 11
8.8900
 21
33.0200
 31
0.0000
  0
LINE
  8
16
 10
8.8900
 20
33.0200
 30
0.0000
 11
27.6860
 21
33.0200
 31
0.0000
  0
LINE
  8
16
 10
25.1580
 20
13.6670
 30
0.0000
 11
25.1580
 21
13.9580
 31
0.0000
  0
LINE
  8
16
 10
25.1580
 20
13.9580
 30
0.0000
 11
24.0030
 21
15.1130
 31
0.0000
  0
LINE
  8
16
 10
24.0030
 20
15.1130
 30
0.0000
 11
12.7000
 21
15.1130
 31
0.0000
  0
LINE
  8
16
 10
12.7000
 20
15.1130
 30
0.0000
 11
10.2870
 21
17.5260
 31
0.0000
  0
LINE
  8
16
 10
6.6040
 20
42.2910
 30
0.0000
 11
6.4770
 21
42.2910
 31
0.0000
  0
LINE
  8
16
 10
6.4770
 20
42.2910
 30
0.0000
 11
5.2070
 21
43.5610
 31
0.0000
  0
LINE
  8
16
 10
2.6670
 20
43.5610
 30
0.0000
 11
1.6510
 21
42.5450
 31
0.0000
  0
LINE
  8
16
 10
4.4450
 20
19.0500
 30
0.0000
 11
5.9690
 21
17.5260
 31
0.0000
  0
LINE
  8
16
 10
5.9690
 20
17.5260
 30
0.0000
 11
10.2870
 21
17.5260
 31
0.0000
  0
LINE
  8
16
 10
5.2070
 20
43.5610
 30
0.0000
 11
2.6670
 21
43.5610
 31
0.0000
  0
LINE
  8
16
 10
1.6510
 20
42.5450
 30
0.0000
 11
1.6510
 21
32.6390
 31
0.0000
  0
LINE
  8
16
 10
1.6510
 20
32.6390
 30
0.0000
 11
4.4450
 21
29.8450
 31
0.0000
  0
LINE
  8
16
 10
4.4450
 20
29.8450
 30
0.0000
 11
4.4450
 21
19.0500
 31
0.0000
  0
ENDSEC
  0
EOF
