  0
SECTION
  2
HEADER
  9
$ACADVER
  1
AC1009
  9
$FILLMODE
 70
1
  9
$EXTMIN
 10
-23.6590
 20
8.3566
 30
0.0000
  9
$EXTMAX
 10
76.5175
 20
71.2470
 30
0.0000
  0
ENDSEC
  0
SECTION
  2
TABLES
  0
TABLE
  2
LTYPE
 70
1
  0
LTYPE
  2
CONTINUOUS
 70
64
  3
Solid line
 72
65
 73
0
 40
0
  0
ENDTAB
  0
TABLE
  2
LAYER
 70
255
  0
LAYER
  2
30
 70
64
 62
253
  6
CONTINUOUS
  0
ENDTAB
  0
ENDSEC
  0
SECTION
  2
BLOCKS
  0
BLOCK
  8
0
  2
RECT
 70
64
 10
0.0000
 20
0.0000
 30
0.0000
  3
RECT
  0
SOLID
  8
0
 10
-0.5000
 20
-0.5000
 30
0.0000
 11
0.5000
 21
-0.5000
 31
0.0000
 12
-0.5000
 22
0.5000
 32
0.0000
 13
0.5000
 23
0.5000
 33
0.0000
  0
ENDBLK
  8
0
  0
BLOCK
  8
0
  2
PIE
 70
64
 10
0.0000
 20
0.0000
 30
0.0000
  3
PIE
  0
POLYLINE
  8
0
 66
1
 10
0.0000
 20
0.0000
 30
0.0000
 40
0.5000
 41
0.5000
 70
0
  0
VERTEX
  8
0
 10
0.0000
 20
-0.2500
 30
0.0000
 42
1.0000
  0
VERTEX
  8
0
 10
0.0000
 20
0.2500
 30
0.0000
 42
1.0000
  0
VERTEX
  8
0
 10
0.0000
 20
-0.2500
 30
0.0000
  0
SEQEND
  8
0
  0
ENDBLK
  8
0
  0
BLOCK
  8
0
  2
OCTAGONP
 70
64
 10
0.0000
 20
0.0000
 30
0.0000
  3
OCTAGONP
  0
POLYLINE
  8
0
 66
1
 10
0.0000
 20
0.0000
 30
0.0000
 40
0.5000
 41
0.5000
 70
0
  0
VERTEX
  8
0
 10
-0.2500
 20
-0.1036
 30
0.0000
  0
VERTEX
  8
0
 10
-0.2500
 20
0.1036
 30
0.0000
  0
VERTEX
  8
0
 10
-0.1036
 20
0.2500
 30
0.0000
  0
VERTEX
  8
0
 10
0.1036
 20
0.2500
 30
0.0000
  0
VERTEX
  8
0
 10
0.2500
 20
0.1036
 30
0.0000
  0
VERTEX
  8
0
 10
0.2500
 20
-0.1036
 30
0.0000
  0
VERTEX
  8
0
 10
0.1036
 20
-0.2500
 30
0.0000
  0
VERTEX
  8
0
 10
-0.1036
 20
-0.2500
 30
0.0000
  0
VERTEX
  8
0
 10
-0.2500
 20
-0.1036
 30
0.0000
  0
VERTEX
  8
0
 10
-0.2500
 20
0.1036
 30
0.0000
  0
SEQEND
  8
0
  0
ENDBLK
  8
0
  0
BLOCK
  8
0
  2
SQUAREP
 70
64
 10
0.0000
 20
0.0000
 30
0.0000
  3
SQUAREP
  0
SOLID
  8
0
 10
-0.5000
 20
-0.5000
 30
0.0000
 11
0.5000
 21
-0.5000
 31
0.0000
 12
-0.5000
 22
0.5000
 32
0.0000
 13
0.5000
 23
0.5000
 33
0.0000
  0
ENDBLK
  8
0
  0
BLOCK
  8
0
  2
ROUNDP
 70
64
 10
0.0000
 20
0.0000
 30
0.0000
  3
ROUNDP
  0
POLYLINE
  8
0
 66
1
 10
0.0000
 20
0.0000
 30
0.0000
 40
0.5000
 41
0.5000
 70
0
  0
VERTEX
  8
0
 10
0.0000
 20
-0.2500
 30
0.0000
 42
1.0000
  0
VERTEX
  8
0
 10
0.0000
 20
0.2500
 30
0.0000
 42
1.0000
  0
VERTEX
  8
0
 10
0.0000
 20
-0.2500
 30
0.0000
  0
SEQEND
  8
0
  0
ENDBLK
  8
0
  0
BLOCK
  8
0
  2
ANNULUSP
 70
64
 10
0.0000
 20
0.0000
 30
0.0000
  3
ANNULUSP
  0
POLYLINE
  8
0
 66
1
 10
0.0000
 20
0.0000
 30
0.0000
 40
0.5000
 41
0.5000
 70
0
  0
VERTEX
  8
0
 10
0.0000
 20
-0.2500
 30
0.0000
 42
1.0000
  0
VERTEX
  8
0
 10
0.0000
 20
0.2500
 30
0.0000
 42
1.0000
  0
VERTEX
  8
0
 10
0.0000
 20
-0.2500
 30
0.0000
  0
SEQEND
  8
0
  0
ENDBLK
  8
0
  0
BLOCK
  8
0
  2
THERMALP
 70
64
 10
0.0000
 20
0.0000
 30
0.0000
  3
THERMALP
  0
POLYLINE
  8
0
 66
1
 10
0.0000
 20
0.0000
 30
0.0000
 40
0.1000
 41
0.1000
 70
0
  0
VERTEX
  8
0
 10
-0.2379
 20
0.4500
 30
0.0000
  0
VERTEX
  8
0
 10
0.2379
 20
0.4500
 30
0.0000
  0
SEQEND
  8
0
  0
POLYLINE
  8
0
 66
1
 10
0.0000
 20
0.0000
 30
0.0000
 40
0.0500
 41
0.0500
 70
0
  0
VERTEX
  8
0
 10
0.2379
 20
0.4250
 30
0.0000
 42
1.0000
  0
VERTEX
  8
0
 10
0.2379
 20
0.4750
 30
0.0000
  0
SEQEND
  8
0
  0
POLYLINE
  8
0
 66
1
 10
0.0000
 20
0.0000
 30
0.0000
 40
0.0500
 41
0.0500
 70
0
  0
VERTEX
  8
0
 10
-0.2379
 20
0.4750
 30
0.0000
 42
1.0000
  0
VERTEX
  8
0
 10
-0.2379
 20
0.4250
 30
0.0000
  0
SEQEND
  8
0
  0
POLYLINE
  8
0
 66
1
 10
0.0000
 20
0.0000
 30
0.0000
 40
0.1000
 41
0.1000
 70
0
  0
VERTEX
  8
0
 10
0.4500
 20
0.2379
 30
0.0000
  0
VERTEX
  8
0
 10
0.4500
 20
-0.2379
 30
0.0000
  0
SEQEND
  8
0
  0
POLYLINE
  8
0
 66
1
 10
0.0000
 20
0.0000
 30
0.0000
 40
0.0500
 41
0.0500
 70
0
  0
VERTEX
  8
0
 10
0.4250
 20
-0.2379
 30
0.0000
 42
1.0000
  0
VERTEX
  8
0
 10
0.4750
 20
-0.2379
 30
0.0000
  0
SEQEND
  8
0
  0
POLYLINE
  8
0
 66
1
 10
0.0000
 20
0.0000
 30
0.0000
 40
0.0500
 41
0.0500
 70
0
  0
VERTEX
  8
0
 10
0.4750
 20
0.2379
 30
0.0000
 42
1.0000
  0
VERTEX
  8
0
 10
0.4250
 20
0.2379
 30
0.0000
  0
SEQEND
  8
0
  0
POLYLINE
  8
0
 66
1
 10
0.0000
 20
0.0000
 30
0.0000
 40
0.1000
 41
0.1000
 70
0
  0
VERTEX
  8
0
 10
0.2379
 20
-0.4500
 30
0.0000
  0
VERTEX
  8
0
 10
-0.2379
 20
-0.4500
 30
0.0000
  0
SEQEND
  8
0
  0
POLYLINE
  8
0
 66
1
 10
0.0000
 20
0.0000
 30
0.0000
 40
0.0500
 41
0.0500
 70
0
  0
VERTEX
  8
0
 10
-0.2379
 20
-0.4250
 30
0.0000
 42
1.0000
  0
VERTEX
  8
0
 10
-0.2379
 20
-0.4750
 30
0.0000
  0
SEQEND
  8
0
  0
POLYLINE
  8
0
 66
1
 10
0.0000
 20
0.0000
 30
0.0000
 40
0.0500
 41
0.0500
 70
0
  0
VERTEX
  8
0
 10
0.2379
 20
-0.4750
 30
0.0000
 42
1.0000
  0
VERTEX
  8
0
 10
0.2379
 20
-0.4250
 30
0.0000
  0
SEQEND
  8
0
  0
POLYLINE
  8
0
 66
1
 10
0.0000
 20
0.0000
 30
0.0000
 40
0.1000
 41
0.1000
 70
0
  0
VERTEX
  8
0
 10
-0.4500
 20
-0.2379
 30
0.0000
  0
VERTEX
  8
0
 10
-0.4500
 20
0.2379
 30
0.0000
  0
SEQEND
  8
0
  0
POLYLINE
  8
0
 66
1
 10
0.0000
 20
0.0000
 30
0.0000
 40
0.0500
 41
0.0500
 70
0
  0
VERTEX
  8
0
 10
-0.4250
 20
0.2379
 30
0.0000
 42
1.0000
  0
VERTEX
  8
0
 10
-0.4750
 20
0.2379
 30
0.0000
  0
SEQEND
  8
0
  0
POLYLINE
  8
0
 66
1
 10
0.0000
 20
0.0000
 30
0.0000
 40
0.0500
 41
0.0500
 70
0
  0
VERTEX
  8
0
 10
-0.4750
 20
-0.2379
 30
0.0000
 42
1.0000
  0
VERTEX
  8
0
 10
-0.4250
 20
-0.2379
 30
0.0000
  0
SEQEND
  8
0
  0
ENDBLK
  8
0
  0
BLOCK
  8
0
  2
OCTAGONV
 70
64
 10
0.0000
 20
0.0000
 30
0.0000
  3
OCTAGONV
  0
POLYLINE
  8
0
 66
1
 10
0.0000
 20
0.0000
 30
0.0000
 40
0.5000
 41
0.5000
 70
0
  0
VERTEX
  8
0
 10
-0.2500
 20
-0.1036
 30
0.0000
  0
VERTEX
  8
0
 10
-0.2500
 20
0.1036
 30
0.0000
  0
VERTEX
  8
0
 10
-0.1036
 20
0.2500
 30
0.0000
  0
VERTEX
  8
0
 10
0.1036
 20
0.2500
 30
0.0000
  0
VERTEX
  8
0
 10
0.2500
 20
0.1036
 30
0.0000
  0
VERTEX
  8
0
 10
0.2500
 20
-0.1036
 30
0.0000
  0
VERTEX
  8
0
 10
0.1036
 20
-0.2500
 30
0.0000
  0
VERTEX
  8
0
 10
-0.1036
 20
-0.2500
 30
0.0000
  0
VERTEX
  8
0
 10
-0.2500
 20
-0.1036
 30
0.0000
  0
VERTEX
  8
0
 10
-0.2500
 20
0.1036
 30
0.0000
  0
SEQEND
  8
0
  0
ENDBLK
  8
0
  0
BLOCK
  8
0
  2
SQUAREV
 70
64
 10
0.0000
 20
0.0000
 30
0.0000
  3
SQUAREV
  0
SOLID
  8
0
 10
-0.5000
 20
-0.5000
 30
0.0000
 11
0.5000
 21
-0.5000
 31
0.0000
 12
-0.5000
 22
0.5000
 32
0.0000
 13
0.5000
 23
0.5000
 33
0.0000
  0
ENDBLK
  8
0
  0
BLOCK
  8
0
  2
ROUNDV
 70
64
 10
0.0000
 20
0.0000
 30
0.0000
  3
ROUNDV
  0
POLYLINE
  8
0
 66
1
 10
0.0000
 20
0.0000
 30
0.0000
 40
0.5000
 41
0.5000
 70
0
  0
VERTEX
  8
0
 10
0.0000
 20
-0.2500
 30
0.0000
 42
1.0000
  0
VERTEX
  8
0
 10
0.0000
 20
0.2500
 30
0.0000
 42
1.0000
  0
VERTEX
  8
0
 10
0.0000
 20
-0.2500
 30
0.0000
  0
SEQEND
  8
0
  0
ENDBLK
  8
0
  0
BLOCK
  8
0
  2
ANNULUSV
 70
64
 10
0.0000
 20
0.0000
 30
0.0000
  3
ANNULUSV
  0
POLYLINE
  8
0
 66
1
 10
0.0000
 20
0.0000
 30
0.0000
 40
0.5000
 41
0.5000
 70
0
  0
VERTEX
  8
0
 10
0.0000
 20
-0.2500
 30
0.0000
 42
1.0000
  0
VERTEX
  8
0
 10
0.0000
 20
0.2500
 30
0.0000
 42
1.0000
  0
VERTEX
  8
0
 10
0.0000
 20
-0.2500
 30
0.0000
  0
SEQEND
  8
0
  0
ENDBLK
  8
0
  0
BLOCK
  8
0
  2
THERMALV
 70
64
 10
0.0000
 20
0.0000
 30
0.0000
  3
THERMALV
  0
POLYLINE
  8
0
 66
1
 10
0.0000
 20
0.0000
 30
0.0000
 40
0.1000
 41
0.1000
 70
0
  0
VERTEX
  8
0
 10
-0.2379
 20
0.4500
 30
0.0000
  0
VERTEX
  8
0
 10
0.2379
 20
0.4500
 30
0.0000
  0
SEQEND
  8
0
  0
POLYLINE
  8
0
 66
1
 10
0.0000
 20
0.0000
 30
0.0000
 40
0.0500
 41
0.0500
 70
0
  0
VERTEX
  8
0
 10
0.2379
 20
0.4250
 30
0.0000
 42
1.0000
  0
VERTEX
  8
0
 10
0.2379
 20
0.4750
 30
0.0000
  0
SEQEND
  8
0
  0
POLYLINE
  8
0
 66
1
 10
0.0000
 20
0.0000
 30
0.0000
 40
0.0500
 41
0.0500
 70
0
  0
VERTEX
  8
0
 10
-0.2379
 20
0.4750
 30
0.0000
 42
1.0000
  0
VERTEX
  8
0
 10
-0.2379
 20
0.4250
 30
0.0000
  0
SEQEND
  8
0
  0
POLYLINE
  8
0
 66
1
 10
0.0000
 20
0.0000
 30
0.0000
 40
0.1000
 41
0.1000
 70
0
  0
VERTEX
  8
0
 10
0.4500
 20
0.2379
 30
0.0000
  0
VERTEX
  8
0
 10
0.4500
 20
-0.2379
 30
0.0000
  0
SEQEND
  8
0
  0
POLYLINE
  8
0
 66
1
 10
0.0000
 20
0.0000
 30
0.0000
 40
0.0500
 41
0.0500
 70
0
  0
VERTEX
  8
0
 10
0.4250
 20
-0.2379
 30
0.0000
 42
1.0000
  0
VERTEX
  8
0
 10
0.4750
 20
-0.2379
 30
0.0000
  0
SEQEND
  8
0
  0
POLYLINE
  8
0
 66
1
 10
0.0000
 20
0.0000
 30
0.0000
 40
0.0500
 41
0.0500
 70
0
  0
VERTEX
  8
0
 10
0.4750
 20
0.2379
 30
0.0000
 42
1.0000
  0
VERTEX
  8
0
 10
0.4250
 20
0.2379
 30
0.0000
  0
SEQEND
  8
0
  0
POLYLINE
  8
0
 66
1
 10
0.0000
 20
0.0000
 30
0.0000
 40
0.1000
 41
0.1000
 70
0
  0
VERTEX
  8
0
 10
0.2379
 20
-0.4500
 30
0.0000
  0
VERTEX
  8
0
 10
-0.2379
 20
-0.4500
 30
0.0000
  0
SEQEND
  8
0
  0
POLYLINE
  8
0
 66
1
 10
0.0000
 20
0.0000
 30
0.0000
 40
0.0500
 41
0.0500
 70
0
  0
VERTEX
  8
0
 10
-0.2379
 20
-0.4250
 30
0.0000
 42
1.0000
  0
VERTEX
  8
0
 10
-0.2379
 20
-0.4750
 30
0.0000
  0
SEQEND
  8
0
  0
POLYLINE
  8
0
 66
1
 10
0.0000
 20
0.0000
 30
0.0000
 40
0.0500
 41
0.0500
 70
0
  0
VERTEX
  8
0
 10
0.2379
 20
-0.4750
 30
0.0000
 42
1.0000
  0
VERTEX
  8
0
 10
0.2379
 20
-0.4250
 30
0.0000
  0
SEQEND
  8
0
  0
POLYLINE
  8
0
 66
1
 10
0.0000
 20
0.0000
 30
0.0000
 40
0.1000
 41
0.1000
 70
0
  0
VERTEX
  8
0
 10
-0.4500
 20
-0.2379
 30
0.0000
  0
VERTEX
  8
0
 10
-0.4500
 20
0.2379
 30
0.0000
  0
SEQEND
  8
0
  0
POLYLINE
  8
0
 66
1
 10
0.0000
 20
0.0000
 30
0.0000
 40
0.0500
 41
0.0500
 70
0
  0
VERTEX
  8
0
 10
-0.4250
 20
0.2379
 30
0.0000
 42
1.0000
  0
VERTEX
  8
0
 10
-0.4750
 20
0.2379
 30
0.0000
  0
SEQEND
  8
0
  0
POLYLINE
  8
0
 66
1
 10
0.0000
 20
0.0000
 30
0.0000
 40
0.0500
 41
0.0500
 70
0
  0
VERTEX
  8
0
 10
-0.4750
 20
-0.2379
 30
0.0000
 42
1.0000
  0
VERTEX
  8
0
 10
-0.4250
 20
-0.2379
 30
0.0000
  0
SEQEND
  8
0
  0
ENDBLK
  8
0
  0
ENDSEC
  0
SECTION
  2
ENTITIES
  0
INSERT
  8
30
  2
OCTAGONP
 10
11.5570
 20
29.0830
 30
0.0000
 41
1.5240
 42
1.5240
 43
1.0000
 50
90.0000
  0
INSERT
  8
30
  2
OCTAGONP
 10
11.5570
 20
39.2430
 30
0.0000
 41
1.5240
 42
1.5240
 43
1.0000
 50
90.0000
  0
INSERT
  8
30
  2
OCTAGONP
 10
14.9860
 20
39.2430
 30
0.0000
 41
1.5240
 42
1.5240
 43
1.0000
 50
270.0000
  0
INSERT
  8
30
  2
OCTAGONP
 10
14.9860
 20
29.0830
 30
0.0000
 41
1.5240
 42
1.5240
 43
1.0000
 50
270.0000
  0
POLYLINE
  8
30
 66
1
 10
0.0000
 20
0.0000
 30
0.0000
 40
1.7018
 41
1.7018
 70
0
  0
VERTEX
  8
30
 10
54.8640
 20
18.5801
 30
0.0000
 42
1.0000
  0
VERTEX
  8
30
 10
54.8640
 20
20.2819
 30
0.0000
 42
1.0000
  0
VERTEX
  8
30
 10
54.8640
 20
18.5801
 30
0.0000
  0
SEQEND
  8
0
  0
POLYLINE
  8
30
 66
1
 10
0.0000
 20
0.0000
 30
0.0000
 40
1.7018
 41
1.7018
 70
0
  0
VERTEX
  8
30
 10
4.0640
 20
33.8201
 30
0.0000
 42
1.0000
  0
VERTEX
  8
30
 10
4.0640
 20
35.5219
 30
0.0000
 42
1.0000
  0
VERTEX
  8
30
 10
4.0640
 20
33.8201
 30
0.0000
  0
SEQEND
  8
0
  0
POLYLINE
  8
30
 66
1
 10
0.0000
 20
0.0000
 30
0.0000
 40
1.7018
 41
1.7018
 70
0
  0
VERTEX
  8
30
 10
4.0640
 20
61.7601
 30
0.0000
 42
1.0000
  0
VERTEX
  8
30
 10
4.0640
 20
63.4619
 30
0.0000
 42
1.0000
  0
VERTEX
  8
30
 10
4.0640
 20
61.7601
 30
0.0000
  0
SEQEND
  8
0
  0
INSERT
  8
30
  2
SQUAREP
 10
6.6040
 20
19.4310
 30
0.0000
 41
1.8542
 42
1.8542
 43
1.0000
 50
180.0000
  0
INSERT
  8
30
  2
ROUNDP
 10
9.1440
 20
19.4310
 30
0.0000
 41
1.8542
 42
1.8542
 43
1.0000
 50
180.0000
  0
INSERT
  8
30
  2
ROUNDP
 10
11.6840
 20
19.4310
 30
0.0000
 41
1.8542
 42
1.8542
 43
1.0000
 50
180.0000
  0
INSERT
  8
30
  2
ROUNDP
 10
14.2240
 20
19.4310
 30
0.0000
 41
1.8542
 42
1.8542
 43
1.0000
 50
180.0000
  0
INSERT
  8
30
  2
ROUNDP
 10
16.7640
 20
19.4310
 30
0.0000
 41
1.8542
 42
1.8542
 43
1.0000
 50
180.0000
  0
INSERT
  8
30
  2
ROUNDP
 10
19.3040
 20
19.4310
 30
0.0000
 41
1.8542
 42
1.8542
 43
1.0000
 50
180.0000
  0
INSERT
  8
30
  2
ROUNDP
 10
21.8440
 20
19.4310
 30
0.0000
 41
1.8542
 42
1.8542
 43
1.0000
 50
180.0000
  0
INSERT
  8
30
  2
ROUNDP
 10
24.3840
 20
19.4310
 30
0.0000
 41
1.8542
 42
1.8542
 43
1.0000
 50
180.0000
  0
INSERT
  8
30
  2
SQUAREP
 10
28.4480
 20
19.4310
 30
0.0000
 41
1.8542
 42
1.8542
 43
1.0000
 50
180.0000
  0
INSERT
  8
30
  2
ROUNDP
 10
30.9880
 20
19.4310
 30
0.0000
 41
1.8542
 42
1.8542
 43
1.0000
 50
180.0000
  0
INSERT
  8
30
  2
ROUNDP
 10
33.5280
 20
19.4310
 30
0.0000
 41
1.8542
 42
1.8542
 43
1.0000
 50
180.0000
  0
INSERT
  8
30
  2
ROUNDP
 10
36.0680
 20
19.4310
 30
0.0000
 41
1.8542
 42
1.8542
 43
1.0000
 50
180.0000
  0
INSERT
  8
30
  2
ROUNDP
 10
38.6080
 20
19.4310
 30
0.0000
 41
1.8542
 42
1.8542
 43
1.0000
 50
180.0000
  0
INSERT
  8
30
  2
ROUNDP
 10
41.1480
 20
19.4310
 30
0.0000
 41
1.8542
 42
1.8542
 43
1.0000
 50
180.0000
  0
INSERT
  8
30
  2
ROUNDP
 10
43.6880
 20
19.4310
 30
0.0000
 41
1.8542
 42
1.8542
 43
1.0000
 50
180.0000
  0
INSERT
  8
30
  2
ROUNDP
 10
46.2280
 20
19.4310
 30
0.0000
 41
1.8542
 42
1.8542
 43
1.0000
 50
180.0000
  0
INSERT
  8
30
  2
ROUNDP
 10
48.7680
 20
19.4310
 30
0.0000
 41
1.8542
 42
1.8542
 43
1.0000
 50
180.0000
  0
INSERT
  8
30
  2
ROUNDP
 10
51.3080
 20
19.4310
 30
0.0000
 41
1.8542
 42
1.8542
 43
1.0000
 50
180.0000
  0
INSERT
  8
30
  2
ROUNDP
 10
42.1640
 20
67.6910
 30
0.0000
 41
1.8542
 42
1.8542
 43
1.0000
 50
180.0000
  0
INSERT
  8
30
  2
ROUNDP
 10
39.6240
 20
67.6910
 30
0.0000
 41
1.8542
 42
1.8542
 43
1.0000
 50
180.0000
  0
INSERT
  8
30
  2
ROUNDP
 10
37.0840
 20
67.6910
 30
0.0000
 41
1.8542
 42
1.8542
 43
1.0000
 50
180.0000
  0
INSERT
  8
30
  2
ROUNDP
 10
34.5440
 20
67.6910
 30
0.0000
 41
1.8542
 42
1.8542
 43
1.0000
 50
180.0000
  0
INSERT
  8
30
  2
ROUNDP
 10
32.0040
 20
67.6910
 30
0.0000
 41
1.8542
 42
1.8542
 43
1.0000
 50
180.0000
  0
INSERT
  8
30
  2
ROUNDP
 10
29.4640
 20
67.6910
 30
0.0000
 41
1.8542
 42
1.8542
 43
1.0000
 50
180.0000
  0
INSERT
  8
30
  2
ROUNDP
 10
26.9240
 20
67.6910
 30
0.0000
 41
1.8542
 42
1.8542
 43
1.0000
 50
180.0000
  0
INSERT
  8
30
  2
SQUAREP
 10
24.3840
 20
67.6910
 30
0.0000
 41
1.8542
 42
1.8542
 43
1.0000
 50
180.0000
  0
INSERT
  8
30
  2
SQUAREP
 10
19.3040
 20
67.6910
 30
0.0000
 41
1.8542
 42
1.8542
 43
1.0000
 50
180.0000
  0
INSERT
  8
30
  2
ROUNDP
 10
16.7640
 20
67.6910
 30
0.0000
 41
1.8542
 42
1.8542
 43
1.0000
 50
180.0000
  0
INSERT
  8
30
  2
ROUNDP
 10
14.2240
 20
67.6910
 30
0.0000
 41
1.8542
 42
1.8542
 43
1.0000
 50
180.0000
  0
INSERT
  8
30
  2
ROUNDP
 10
11.6840
 20
67.6910
 30
0.0000
 41
1.8542
 42
1.8542
 43
1.0000
 50
180.0000
  0
INSERT
  8
30
  2
ROUNDP
 10
9.1440
 20
67.6910
 30
0.0000
 41
1.8542
 42
1.8542
 43
1.0000
 50
180.0000
  0
INSERT
  8
30
  2
ROUNDP
 10
6.6040
 20
67.6910
 30
0.0000
 41
1.8542
 42
1.8542
 43
1.0000
 50
180.0000
  0
INSERT
  8
30
  2
SQUAREP
 10
6.6040
 20
39.7510
 30
0.0000
 41
1.8542
 42
1.8542
 43
1.0000
 50
180.0000
  0
INSERT
  8
30
  2
ROUNDP
 10
6.6040
 20
42.2910
 30
0.0000
 41
1.8542
 42
1.8542
 43
1.0000
 50
180.0000
  0
INSERT
  8
30
  2
ROUNDP
 10
6.6040
 20
44.8310
 30
0.0000
 41
1.8542
 42
1.8542
 43
1.0000
 50
180.0000
  0
INSERT
  8
30
  2
ROUNDP
 10
4.0640
 20
44.8310
 30
0.0000
 41
1.8542
 42
1.8542
 43
1.0000
 50
180.0000
  0
INSERT
  8
30
  2
ROUNDP
 10
4.0640
 20
42.2910
 30
0.0000
 41
1.8542
 42
1.8542
 43
1.0000
 50
180.0000
  0
INSERT
  8
30
  2
ROUNDP
 10
4.0640
 20
39.7510
 30
0.0000
 41
1.8542
 42
1.8542
 43
1.0000
 50
180.0000
  0
INSERT
  8
30
  2
SQUAREP
 10
53.0980
 20
13.6670
 30
0.0000
 41
1.9812
 42
1.9812
 43
1.0000
 50
180.0000
  0
INSERT
  8
30
  2
ROUNDP
 10
53.0980
 20
11.1270
 30
0.0000
 41
1.9812
 42
1.9812
 43
1.0000
 50
180.0000
  0
INSERT
  8
30
  2
ROUNDP
 10
50.5580
 20
13.6670
 30
0.0000
 41
1.9812
 42
1.9812
 43
1.0000
 50
180.0000
  0
INSERT
  8
30
  2
ROUNDP
 10
50.5580
 20
11.1270
 30
0.0000
 41
1.9812
 42
1.9812
 43
1.0000
 50
180.0000
  0
INSERT
  8
30
  2
ROUNDP
 10
48.0180
 20
13.6670
 30
0.0000
 41
1.9812
 42
1.9812
 43
1.0000
 50
180.0000
  0
INSERT
  8
30
  2
ROUNDP
 10
48.0180
 20
11.1270
 30
0.0000
 41
1.9812
 42
1.9812
 43
1.0000
 50
180.0000
  0
INSERT
  8
30
  2
ROUNDP
 10
45.4780
 20
13.6670
 30
0.0000
 41
1.9812
 42
1.9812
 43
1.0000
 50
180.0000
  0
INSERT
  8
30
  2
ROUNDP
 10
45.4780
 20
11.1270
 30
0.0000
 41
1.9812
 42
1.9812
 43
1.0000
 50
180.0000
  0
INSERT
  8
30
  2
ROUNDP
 10
42.9380
 20
13.6670
 30
0.0000
 41
1.9812
 42
1.9812
 43
1.0000
 50
180.0000
  0
INSERT
  8
30
  2
ROUNDP
 10
42.9380
 20
11.1270
 30
0.0000
 41
1.9812
 42
1.9812
 43
1.0000
 50
180.0000
  0
INSERT
  8
30
  2
ROUNDP
 10
40.3980
 20
13.6670
 30
0.0000
 41
1.9812
 42
1.9812
 43
1.0000
 50
180.0000
  0
INSERT
  8
30
  2
ROUNDP
 10
40.3980
 20
11.1270
 30
0.0000
 41
1.9812
 42
1.9812
 43
1.0000
 50
180.0000
  0
INSERT
  8
30
  2
ROUNDP
 10
37.8580
 20
13.6670
 30
0.0000
 41
1.9812
 42
1.9812
 43
1.0000
 50
180.0000
  0
INSERT
  8
30
  2
ROUNDP
 10
37.8580
 20
11.1270
 30
0.0000
 41
1.9812
 42
1.9812
 43
1.0000
 50
180.0000
  0
INSERT
  8
30
  2
ROUNDP
 10
35.3180
 20
13.6670
 30
0.0000
 41
1.9812
 42
1.9812
 43
1.0000
 50
180.0000
  0
INSERT
  8
30
  2
ROUNDP
 10
35.3180
 20
11.1270
 30
0.0000
 41
1.9812
 42
1.9812
 43
1.0000
 50
180.0000
  0
INSERT
  8
30
  2
ROUNDP
 10
32.7780
 20
13.6670
 30
0.0000
 41
1.9812
 42
1.9812
 43
1.0000
 50
180.0000
  0
INSERT
  8
30
  2
ROUNDP
 10
32.7780
 20
11.1270
 30
0.0000
 41
1.9812
 42
1.9812
 43
1.0000
 50
180.0000
  0
INSERT
  8
30
  2
ROUNDP
 10
30.2380
 20
13.6670
 30
0.0000
 41
1.9812
 42
1.9812
 43
1.0000
 50
180.0000
  0
INSERT
  8
30
  2
ROUNDP
 10
30.2380
 20
11.1270
 30
0.0000
 41
1.9812
 42
1.9812
 43
1.0000
 50
180.0000
  0
INSERT
  8
30
  2
ROUNDP
 10
27.6980
 20
13.6670
 30
0.0000
 41
1.9812
 42
1.9812
 43
1.0000
 50
180.0000
  0
INSERT
  8
30
  2
ROUNDP
 10
27.6980
 20
11.1270
 30
0.0000
 41
1.9812
 42
1.9812
 43
1.0000
 50
180.0000
  0
INSERT
  8
30
  2
ROUNDP
 10
25.1580
 20
13.6670
 30
0.0000
 41
1.9812
 42
1.9812
 43
1.0000
 50
180.0000
  0
INSERT
  8
30
  2
ROUNDP
 10
25.1580
 20
11.1270
 30
0.0000
 41
1.9812
 42
1.9812
 43
1.0000
 50
180.0000
  0
INSERT
  8
30
  2
ROUNDP
 10
22.6180
 20
13.6670
 30
0.0000
 41
1.9812
 42
1.9812
 43
1.0000
 50
180.0000
  0
INSERT
  8
30
  2
ROUNDP
 10
22.6180
 20
11.1270
 30
0.0000
 41
1.9812
 42
1.9812
 43
1.0000
 50
180.0000
  0
INSERT
  8
30
  2
ROUNDP
 10
20.0780
 20
13.6670
 30
0.0000
 41
1.9812
 42
1.9812
 43
1.0000
 50
180.0000
  0
INSERT
  8
30
  2
ROUNDP
 10
20.0780
 20
11.1270
 30
0.0000
 41
1.9812
 42
1.9812
 43
1.0000
 50
180.0000
  0
INSERT
  8
30
  2
ROUNDP
 10
17.5380
 20
13.6670
 30
0.0000
 41
1.9812
 42
1.9812
 43
1.0000
 50
180.0000
  0
INSERT
  8
30
  2
ROUNDP
 10
17.5380
 20
11.1270
 30
0.0000
 41
1.9812
 42
1.9812
 43
1.0000
 50
180.0000
  0
INSERT
  8
30
  2
ROUNDP
 10
14.9980
 20
13.6670
 30
0.0000
 41
1.9812
 42
1.9812
 43
1.0000
 50
180.0000
  0
INSERT
  8
30
  2
ROUNDP
 10
14.9980
 20
11.1270
 30
0.0000
 41
1.9812
 42
1.9812
 43
1.0000
 50
180.0000
  0
INSERT
  8
30
  2
ROUNDP
 10
12.4580
 20
13.6670
 30
0.0000
 41
1.9812
 42
1.9812
 43
1.0000
 50
180.0000
  0
INSERT
  8
30
  2
ROUNDP
 10
12.4580
 20
11.1270
 30
0.0000
 41
1.9812
 42
1.9812
 43
1.0000
 50
180.0000
  0
INSERT
  8
30
  2
ROUNDP
 10
9.9180
 20
13.6670
 30
0.0000
 41
1.9812
 42
1.9812
 43
1.0000
 50
180.0000
  0
INSERT
  8
30
  2
ROUNDP
 10
9.9180
 20
11.1270
 30
0.0000
 41
1.9812
 42
1.9812
 43
1.0000
 50
180.0000
  0
INSERT
  8
30
  2
ROUNDP
 10
7.3780
 20
13.6670
 30
0.0000
 41
1.9812
 42
1.9812
 43
1.0000
 50
180.0000
  0
INSERT
  8
30
  2
ROUNDP
 10
7.3780
 20
11.1270
 30
0.0000
 41
1.9812
 42
1.9812
 43
1.0000
 50
180.0000
  0
INSERT
  8
30
  2
ROUNDP
 10
4.8380
 20
13.6670
 30
0.0000
 41
1.9812
 42
1.9812
 43
1.0000
 50
180.0000
  0
INSERT
  8
30
  2
ROUNDP
 10
4.8380
 20
11.1270
 30
0.0000
 41
1.9812
 42
1.9812
 43
1.0000
 50
180.0000
  0
ENDSEC
  0
EOF
